<svg xmlns="http://www.w3.org/2000/svg" xmlns:xlink="http://www.w3.org/1999/xlink" width="1366" zoomAndPan="magnify" viewBox="0 0 1024.5 576" height="768" preserveAspectRatio="xMidYMid meet" version="1.0"><defs><g/><clipPath id="352d37e7ed"><path d="M 0 0.140625 L 1024 0.140625 L 1024 575.859375 L 0 575.859375 Z M 0 0.140625 " clip-rule="nonzero"/></clipPath><clipPath id="f661535b17"><path d="M 450 207 L 678 207 L 678 216.875 L 450 216.875 Z M 450 207 " clip-rule="nonzero"/></clipPath><clipPath id="1e9dc0daa7"><path d="M 407.324219 171 L 711.550781 171 L 711.550781 216.875 L 407.324219 216.875 Z M 407.324219 171 " clip-rule="nonzero"/></clipPath></defs><g clip-path="url(#352d37e7ed)"><path fill="#ffffff" d="M 0 0.140625 L 1024 0.140625 L 1024 575.859375 L 0 575.859375 Z M 0 0.140625 " fill-opacity="1" fill-rule="nonzero"/><path fill="#ffffff" d="M 0 0.140625 L 1024 0.140625 L 1024 575.859375 L 0 575.859375 Z M 0 0.140625 " fill-opacity="1" fill-rule="nonzero"/></g><g fill="#000000" fill-opacity="1"><g transform="translate(311.549433, 179.26163)"><g><path d="M 32.21875 -26.8125 L 32.21875 0 L 29.5 0 L 29.5 -21.453125 L 18.96875 -3.40625 L 17.625 -3.40625 L 7.09375 -21.34375 L 7.09375 0 L 4.375 0 L 4.375 -26.8125 L 6.703125 -26.8125 L 18.359375 -6.9375 L 29.890625 -26.8125 Z M 32.21875 -26.8125 "/></g></g></g><g fill="#000000" fill-opacity="1"><g transform="translate(348.130717, 179.26163)"><g><path d="M 21.1875 -7.171875 L 6.25 -7.171875 L 3.03125 0 L 0.078125 0 L 12.34375 -26.8125 L 15.140625 -26.8125 L 27.390625 0 L 24.40625 0 Z M 20.15625 -9.46875 L 13.71875 -23.875 L 7.28125 -9.46875 Z M 20.15625 -9.46875 "/></g></g></g><g fill="#000000" fill-opacity="1"><g transform="translate(375.595406, 179.26163)"><g><path d="M 22.6875 0 L 16.546875 -8.625 C 15.859375 -8.539062 15.144531 -8.5 14.40625 -8.5 L 7.203125 -8.5 L 7.203125 0 L 4.375 0 L 4.375 -26.8125 L 14.40625 -26.8125 C 17.832031 -26.8125 20.515625 -25.992188 22.453125 -24.359375 C 24.390625 -22.734375 25.359375 -20.488281 25.359375 -17.625 C 25.359375 -15.53125 24.828125 -13.757812 23.765625 -12.3125 C 22.710938 -10.875 21.203125 -9.832031 19.234375 -9.1875 L 25.78125 0 Z M 14.328125 -10.921875 C 16.984375 -10.921875 19.015625 -11.503906 20.421875 -12.671875 C 21.828125 -13.847656 22.53125 -15.5 22.53125 -17.625 C 22.53125 -19.789062 21.828125 -21.453125 20.421875 -22.609375 C 19.015625 -23.773438 16.984375 -24.359375 14.328125 -24.359375 L 7.203125 -24.359375 L 7.203125 -10.921875 Z M 14.328125 -10.921875 "/></g></g></g><g fill="#000000" fill-opacity="1"><g transform="translate(403.289928, 179.26163)"><g><path d="M 12.6875 -12.609375 L 7.203125 -7.046875 L 7.203125 0 L 4.375 0 L 4.375 -26.8125 L 7.203125 -26.8125 L 7.203125 -10.609375 L 22.953125 -26.8125 L 26.203125 -26.8125 L 14.59375 -14.671875 L 27.015625 0 L 23.640625 0 Z M 12.6875 -12.609375 "/></g></g></g><g fill="#000000" fill-opacity="1"><g transform="translate(430.524795, 179.26163)"><g><path d="M 21.1875 -7.171875 L 6.25 -7.171875 L 3.03125 0 L 0.078125 0 L 12.34375 -26.8125 L 15.140625 -26.8125 L 27.390625 0 L 24.40625 0 Z M 20.15625 -9.46875 L 13.71875 -23.875 L 7.28125 -9.46875 Z M 20.15625 -9.46875 "/></g></g></g><g fill="#000000" fill-opacity="1"><g transform="translate(457.989485, 179.26163)"><g><path d="M 9.578125 -24.359375 L 0.15625 -24.359375 L 0.15625 -26.8125 L 21.84375 -26.8125 L 21.84375 -24.359375 L 12.40625 -24.359375 L 12.40625 0 L 9.578125 0 Z M 9.578125 -24.359375 "/></g></g></g><g fill="#000000" fill-opacity="1"><g transform="translate(479.97656, 179.26163)"><g><path d="M 16.09375 0.234375 C 13.4375 0.234375 11.023438 -0.359375 8.859375 -1.546875 C 6.703125 -2.734375 5.019531 -4.363281 3.8125 -6.4375 C 2.601562 -8.507812 2 -10.832031 2 -13.40625 C 2 -15.988281 2.601562 -18.3125 3.8125 -20.375 C 5.019531 -22.445312 6.703125 -24.078125 8.859375 -25.265625 C 11.023438 -26.453125 13.4375 -27.046875 16.09375 -27.046875 C 18.75 -27.046875 21.140625 -26.457031 23.265625 -25.28125 C 25.398438 -24.113281 27.082031 -22.488281 28.3125 -20.40625 C 29.539062 -18.320312 30.15625 -15.988281 30.15625 -13.40625 C 30.15625 -10.832031 29.539062 -8.503906 28.3125 -6.421875 C 27.082031 -4.335938 25.398438 -2.707031 23.265625 -1.53125 C 21.140625 -0.351562 18.75 0.234375 16.09375 0.234375 Z M 16.09375 -2.296875 C 18.207031 -2.296875 20.117188 -2.773438 21.828125 -3.734375 C 23.546875 -4.691406 24.890625 -6.019531 25.859375 -7.71875 C 26.828125 -9.414062 27.3125 -11.3125 27.3125 -13.40625 C 27.3125 -15.5 26.828125 -17.394531 25.859375 -19.09375 C 24.890625 -20.789062 23.546875 -22.117188 21.828125 -23.078125 C 20.117188 -24.035156 18.207031 -24.515625 16.09375 -24.515625 C 13.96875 -24.515625 12.039062 -24.035156 10.3125 -23.078125 C 8.59375 -22.117188 7.238281 -20.789062 6.25 -19.09375 C 5.269531 -17.394531 4.78125 -15.5 4.78125 -13.40625 C 4.78125 -11.3125 5.269531 -9.414062 6.25 -7.71875 C 7.238281 -6.019531 8.59375 -4.691406 10.3125 -3.734375 C 12.039062 -2.773438 13.96875 -2.296875 16.09375 -2.296875 Z M 16.09375 -2.296875 "/></g></g></g><g fill="#000000" fill-opacity="1"><g transform="translate(324.892853, 191.502859)"><g><path d="M 4.078125 -3.078125 L 7.03125 -3.078125 L 5.5 -6.859375 Z M 7.71875 -8.34375 L 7.71875 -8.15625 C 7.59375 -8.144531 7.507812 -8.117188 7.46875 -8.078125 C 7.4375 -8.046875 7.421875 -8.015625 7.421875 -7.984375 C 7.421875 -7.953125 7.445312 -7.863281 7.5 -7.71875 C 7.5625 -7.570312 7.6875 -7.265625 7.875 -6.796875 L 10.359375 -0.671875 C 10.441406 -0.492188 10.507812 -0.367188 10.5625 -0.296875 C 10.613281 -0.222656 10.695312 -0.1875 10.8125 -0.1875 L 10.8125 0 L 7.6875 0 L 7.6875 -0.1875 C 7.800781 -0.195312 7.878906 -0.21875 7.921875 -0.25 C 7.960938 -0.289062 7.984375 -0.332031 7.984375 -0.375 C 7.984375 -0.382812 7.925781 -0.546875 7.8125 -0.859375 L 7.453125 -1.8125 L 3.6875 -1.8125 L 3.265625 -0.671875 C 3.203125 -0.484375 3.171875 -0.375 3.171875 -0.34375 C 3.171875 -0.300781 3.1875 -0.265625 3.21875 -0.234375 C 3.257812 -0.203125 3.335938 -0.1875 3.453125 -0.1875 L 3.453125 0 L 0.65625 0 L 0.65625 -0.1875 C 0.726562 -0.195312 0.785156 -0.210938 0.828125 -0.234375 C 0.867188 -0.253906 0.90625 -0.285156 0.9375 -0.328125 C 0.976562 -0.367188 1.015625 -0.429688 1.046875 -0.515625 C 1.078125 -0.597656 1.117188 -0.707031 1.171875 -0.84375 L 3.5625 -7.078125 C 3.644531 -7.285156 3.71875 -7.488281 3.78125 -7.6875 C 3.851562 -7.882812 3.890625 -7.992188 3.890625 -8.015625 C 3.890625 -8.035156 3.867188 -8.054688 3.828125 -8.078125 C 3.796875 -8.109375 3.710938 -8.132812 3.578125 -8.15625 L 3.578125 -8.34375 Z M 7.71875 -8.34375 "/></g></g></g><g fill="#000000" fill-opacity="1"><g transform="translate(342.186969, 191.502859)"><g><path d="M 4.625 -8.34375 L 4.625 -8.15625 C 4.414062 -8.132812 4.285156 -8.097656 4.234375 -8.046875 C 4.191406 -8.003906 4.171875 -7.945312 4.171875 -7.875 L 4.171875 -3.625 C 4.171875 -3.0625 4.328125 -2.632812 4.640625 -2.34375 C 4.960938 -2.050781 5.472656 -1.90625 6.171875 -1.90625 C 6.921875 -1.90625 7.441406 -2.0625 7.734375 -2.375 C 8.023438 -2.695312 8.171875 -3.113281 8.171875 -3.625 L 8.171875 -7.875 C 8.171875 -7.957031 8.144531 -8.019531 8.09375 -8.0625 C 8.039062 -8.101562 7.921875 -8.132812 7.734375 -8.15625 L 7.734375 -8.34375 L 11 -8.34375 L 11 -8.15625 C 10.8125 -8.132812 10.691406 -8.101562 10.640625 -8.0625 C 10.585938 -8.019531 10.5625 -7.957031 10.5625 -7.875 L 10.5625 -3.59375 C 10.5625 -2.40625 10.195312 -1.492188 9.46875 -0.859375 C 8.75 -0.222656 7.648438 0.09375 6.171875 0.09375 C 5.410156 0.09375 4.753906 0.0078125 4.203125 -0.15625 C 3.648438 -0.320312 3.195312 -0.5625 2.84375 -0.875 C 2.488281 -1.195312 2.222656 -1.585938 2.046875 -2.046875 C 1.878906 -2.503906 1.796875 -3.019531 1.796875 -3.59375 L 1.796875 -7.875 C 1.796875 -7.957031 1.769531 -8.019531 1.71875 -8.0625 C 1.664062 -8.101562 1.539062 -8.132812 1.34375 -8.15625 L 1.34375 -8.34375 Z M 4.625 -8.34375 "/></g></g></g><g fill="#000000" fill-opacity="1"><g transform="translate(360.370271, 191.502859)"><g><path d="M 0.4375 -8.796875 L 0.640625 -8.796875 C 0.660156 -8.597656 0.691406 -8.472656 0.734375 -8.421875 C 0.785156 -8.367188 0.84375 -8.34375 0.90625 -8.34375 L 8.78125 -8.34375 C 8.84375 -8.34375 8.894531 -8.367188 8.9375 -8.421875 C 8.988281 -8.472656 9.023438 -8.597656 9.046875 -8.796875 L 9.234375 -8.796875 L 9.234375 -5.96875 L 9.046875 -5.96875 C 9.023438 -6.164062 8.988281 -6.285156 8.9375 -6.328125 C 8.894531 -6.378906 8.832031 -6.40625 8.75 -6.40625 L 6.03125 -6.40625 L 6.03125 -0.484375 C 6.03125 -0.410156 6.050781 -0.347656 6.09375 -0.296875 C 6.132812 -0.242188 6.265625 -0.207031 6.484375 -0.1875 L 6.484375 0 L 3.203125 0 L 3.203125 -0.1875 C 3.410156 -0.207031 3.535156 -0.238281 3.578125 -0.28125 C 3.628906 -0.332031 3.65625 -0.398438 3.65625 -0.484375 L 3.65625 -6.40625 L 0.921875 -6.40625 C 0.835938 -6.40625 0.773438 -6.378906 0.734375 -6.328125 C 0.691406 -6.285156 0.660156 -6.164062 0.640625 -5.96875 L 0.4375 -5.96875 Z M 0.4375 -8.796875 "/></g></g></g><g fill="#000000" fill-opacity="1"><g transform="translate(375.901905, 191.502859)"><g><path d="M 3.125 -4.171875 C 3.125 -3.828125 3.191406 -3.507812 3.328125 -3.21875 C 3.460938 -2.9375 3.644531 -2.691406 3.875 -2.484375 C 4.101562 -2.273438 4.375 -2.113281 4.6875 -2 C 5.007812 -1.894531 5.359375 -1.84375 5.734375 -1.84375 C 6.085938 -1.84375 6.421875 -1.894531 6.734375 -2 C 7.054688 -2.113281 7.335938 -2.269531 7.578125 -2.46875 C 7.816406 -2.675781 8 -2.921875 8.125 -3.203125 C 8.257812 -3.492188 8.328125 -3.816406 8.328125 -4.171875 C 8.328125 -4.523438 8.257812 -4.847656 8.125 -5.140625 C 8 -5.429688 7.816406 -5.675781 7.578125 -5.875 C 7.347656 -6.070312 7.070312 -6.226562 6.75 -6.34375 C 6.425781 -6.457031 6.082031 -6.515625 5.71875 -6.515625 C 5.351562 -6.515625 5.007812 -6.457031 4.6875 -6.34375 C 4.375 -6.226562 4.101562 -6.070312 3.875 -5.875 C 3.644531 -5.675781 3.460938 -5.429688 3.328125 -5.140625 C 3.191406 -4.859375 3.125 -4.535156 3.125 -4.171875 Z M 5.734375 -8.453125 C 6.429688 -8.453125 7.082031 -8.351562 7.6875 -8.15625 C 8.289062 -7.96875 8.8125 -7.691406 9.25 -7.328125 C 9.695312 -6.960938 10.046875 -6.515625 10.296875 -5.984375 C 10.554688 -5.453125 10.6875 -4.847656 10.6875 -4.171875 C 10.6875 -3.484375 10.554688 -2.875 10.296875 -2.34375 C 10.035156 -1.820312 9.679688 -1.378906 9.234375 -1.015625 C 8.796875 -0.648438 8.273438 -0.375 7.671875 -0.1875 C 7.066406 0 6.421875 0.09375 5.734375 0.09375 C 5.015625 0.09375 4.347656 -0.00390625 3.734375 -0.203125 C 3.128906 -0.410156 2.609375 -0.695312 2.171875 -1.0625 C 1.734375 -1.4375 1.390625 -1.882812 1.140625 -2.40625 C 0.898438 -2.925781 0.78125 -3.515625 0.78125 -4.171875 C 0.78125 -4.847656 0.90625 -5.453125 1.15625 -5.984375 C 1.414062 -6.515625 1.765625 -6.960938 2.203125 -7.328125 C 2.648438 -7.691406 3.175781 -7.96875 3.78125 -8.15625 C 4.382812 -8.351562 5.035156 -8.453125 5.734375 -8.453125 Z M 5.734375 -8.453125 "/></g></g></g><g fill="#000000" fill-opacity="1"><g transform="translate(393.196021, 191.502859)"><g/></g></g><g fill="#000000" fill-opacity="1"><g transform="translate(403.868908, 191.502859)"><g><path d="M 6.140625 -1.875 C 6.890625 -1.875 7.46875 -2.066406 7.875 -2.453125 C 8.289062 -2.835938 8.5 -3.410156 8.5 -4.171875 C 8.5 -4.929688 8.289062 -5.503906 7.875 -5.890625 C 7.46875 -6.285156 6.890625 -6.484375 6.140625 -6.484375 L 4.109375 -6.484375 L 4.109375 -1.875 Z M 6.609375 -8.34375 C 7.242188 -8.34375 7.820312 -8.25 8.34375 -8.0625 C 8.863281 -7.882812 9.304688 -7.617188 9.671875 -7.265625 C 10.046875 -6.910156 10.332031 -6.472656 10.53125 -5.953125 C 10.738281 -5.429688 10.84375 -4.835938 10.84375 -4.171875 C 10.84375 -3.628906 10.75 -3.109375 10.5625 -2.609375 C 10.375 -2.109375 10.09375 -1.664062 9.71875 -1.28125 C 9.351562 -0.894531 8.890625 -0.582031 8.328125 -0.34375 C 7.773438 -0.113281 7.125 0 6.375 0 L 1.28125 0 L 1.28125 -0.1875 C 1.488281 -0.207031 1.613281 -0.238281 1.65625 -0.28125 C 1.707031 -0.332031 1.734375 -0.394531 1.734375 -0.46875 L 1.734375 -7.875 C 1.734375 -7.945312 1.707031 -8.003906 1.65625 -8.046875 C 1.613281 -8.097656 1.488281 -8.132812 1.28125 -8.15625 L 1.28125 -8.34375 Z M 6.609375 -8.34375 "/></g></g></g><g fill="#000000" fill-opacity="1"><g transform="translate(421.163024, 191.502859)"><g><path d="M 9.6875 -6.03125 L 9.5 -6.03125 C 9.476562 -6.226562 9.441406 -6.351562 9.390625 -6.40625 C 9.335938 -6.457031 9.269531 -6.484375 9.1875 -6.484375 L 4.109375 -6.484375 L 4.109375 -5.15625 L 7.046875 -5.15625 C 7.191406 -5.15625 7.300781 -5.179688 7.375 -5.234375 C 7.457031 -5.296875 7.515625 -5.394531 7.546875 -5.53125 L 7.734375 -5.53125 L 7.734375 -3.046875 L 7.546875 -3.046875 C 7.523438 -3.160156 7.472656 -3.25 7.390625 -3.3125 C 7.316406 -3.375 7.207031 -3.40625 7.0625 -3.40625 L 4.109375 -3.40625 L 4.109375 -1.9375 L 9.203125 -1.9375 C 9.273438 -1.9375 9.335938 -1.957031 9.390625 -2 C 9.441406 -2.050781 9.476562 -2.1875 9.5 -2.40625 L 9.6875 -2.40625 L 9.6875 0.34375 L 9.5 0.34375 C 9.476562 0.207031 9.441406 0.113281 9.390625 0.0625 C 9.347656 0.0195312 9.285156 0 9.203125 0 L 1.28125 0 L 1.28125 -0.1875 C 1.488281 -0.207031 1.613281 -0.238281 1.65625 -0.28125 C 1.707031 -0.332031 1.734375 -0.394531 1.734375 -0.46875 L 1.734375 -7.875 C 1.734375 -7.945312 1.707031 -8.003906 1.65625 -8.046875 C 1.613281 -8.097656 1.488281 -8.132812 1.28125 -8.15625 L 1.28125 -8.34375 L 9.1875 -8.34375 C 9.269531 -8.34375 9.335938 -8.367188 9.390625 -8.421875 C 9.441406 -8.472656 9.476562 -8.597656 9.5 -8.796875 L 9.6875 -8.796875 Z M 9.6875 -6.03125 "/></g></g></g><g fill="#000000" fill-opacity="1"><g transform="translate(437.583844, 191.502859)"><g><path d="M 0.4375 -8.796875 L 0.640625 -8.796875 C 0.660156 -8.597656 0.691406 -8.472656 0.734375 -8.421875 C 0.785156 -8.367188 0.84375 -8.34375 0.90625 -8.34375 L 8.78125 -8.34375 C 8.84375 -8.34375 8.894531 -8.367188 8.9375 -8.421875 C 8.988281 -8.472656 9.023438 -8.597656 9.046875 -8.796875 L 9.234375 -8.796875 L 9.234375 -5.96875 L 9.046875 -5.96875 C 9.023438 -6.164062 8.988281 -6.285156 8.9375 -6.328125 C 8.894531 -6.378906 8.832031 -6.40625 8.75 -6.40625 L 6.03125 -6.40625 L 6.03125 -0.484375 C 6.03125 -0.410156 6.050781 -0.347656 6.09375 -0.296875 C 6.132812 -0.242188 6.265625 -0.207031 6.484375 -0.1875 L 6.484375 0 L 3.203125 0 L 3.203125 -0.1875 C 3.410156 -0.207031 3.535156 -0.238281 3.578125 -0.28125 C 3.628906 -0.332031 3.65625 -0.398438 3.65625 -0.484375 L 3.65625 -6.40625 L 0.921875 -6.40625 C 0.835938 -6.40625 0.773438 -6.378906 0.734375 -6.328125 C 0.691406 -6.285156 0.660156 -6.164062 0.640625 -5.96875 L 0.4375 -5.96875 Z M 0.4375 -8.796875 "/></g></g></g><g fill="#000000" fill-opacity="1"><g transform="translate(453.115479, 191.502859)"><g><path d="M 4.078125 -3.078125 L 7.03125 -3.078125 L 5.5 -6.859375 Z M 7.71875 -8.34375 L 7.71875 -8.15625 C 7.59375 -8.144531 7.507812 -8.117188 7.46875 -8.078125 C 7.4375 -8.046875 7.421875 -8.015625 7.421875 -7.984375 C 7.421875 -7.953125 7.445312 -7.863281 7.5 -7.71875 C 7.5625 -7.570312 7.6875 -7.265625 7.875 -6.796875 L 10.359375 -0.671875 C 10.441406 -0.492188 10.507812 -0.367188 10.5625 -0.296875 C 10.613281 -0.222656 10.695312 -0.1875 10.8125 -0.1875 L 10.8125 0 L 7.6875 0 L 7.6875 -0.1875 C 7.800781 -0.195312 7.878906 -0.21875 7.921875 -0.25 C 7.960938 -0.289062 7.984375 -0.332031 7.984375 -0.375 C 7.984375 -0.382812 7.925781 -0.546875 7.8125 -0.859375 L 7.453125 -1.8125 L 3.6875 -1.8125 L 3.265625 -0.671875 C 3.203125 -0.484375 3.171875 -0.375 3.171875 -0.34375 C 3.171875 -0.300781 3.1875 -0.265625 3.21875 -0.234375 C 3.257812 -0.203125 3.335938 -0.1875 3.453125 -0.1875 L 3.453125 0 L 0.65625 0 L 0.65625 -0.1875 C 0.726562 -0.195312 0.785156 -0.210938 0.828125 -0.234375 C 0.867188 -0.253906 0.90625 -0.285156 0.9375 -0.328125 C 0.976562 -0.367188 1.015625 -0.429688 1.046875 -0.515625 C 1.078125 -0.597656 1.117188 -0.707031 1.171875 -0.84375 L 3.5625 -7.078125 C 3.644531 -7.285156 3.71875 -7.488281 3.78125 -7.6875 C 3.851562 -7.882812 3.890625 -7.992188 3.890625 -8.015625 C 3.890625 -8.035156 3.867188 -8.054688 3.828125 -8.078125 C 3.796875 -8.109375 3.710938 -8.132812 3.578125 -8.15625 L 3.578125 -8.34375 Z M 7.71875 -8.34375 "/></g></g></g><g fill="#000000" fill-opacity="1"><g transform="translate(470.409595, 191.502859)"><g><path d="M 4.734375 -8.34375 L 4.734375 -8.15625 C 4.523438 -8.132812 4.394531 -8.097656 4.34375 -8.046875 C 4.300781 -8.003906 4.28125 -7.945312 4.28125 -7.875 L 4.28125 -0.46875 C 4.28125 -0.394531 4.300781 -0.332031 4.34375 -0.28125 C 4.394531 -0.238281 4.523438 -0.207031 4.734375 -0.1875 L 4.734375 0 L 1.453125 0 L 1.453125 -0.1875 C 1.660156 -0.207031 1.785156 -0.238281 1.828125 -0.28125 C 1.878906 -0.332031 1.90625 -0.394531 1.90625 -0.46875 L 1.90625 -7.875 C 1.90625 -7.945312 1.878906 -8.003906 1.828125 -8.046875 C 1.785156 -8.097656 1.660156 -8.132812 1.453125 -8.15625 L 1.453125 -8.34375 Z M 4.734375 -8.34375 "/></g></g></g><g fill="#000000" fill-opacity="1"><g transform="translate(482.416256, 191.502859)"><g><path d="M 4.5625 -8.34375 L 4.5625 -8.15625 C 4.351562 -8.132812 4.222656 -8.097656 4.171875 -8.046875 C 4.128906 -8.003906 4.109375 -7.945312 4.109375 -7.875 L 4.109375 -1.9375 L 9.5625 -1.9375 C 9.644531 -1.9375 9.707031 -1.957031 9.75 -2 C 9.800781 -2.050781 9.835938 -2.175781 9.859375 -2.375 L 10.046875 -2.375 L 10.046875 0.40625 L 9.859375 0.40625 C 9.835938 0.21875 9.800781 0.101562 9.75 0.0625 C 9.707031 0.0195312 9.644531 0 9.5625 0 L 1.28125 0 L 1.28125 -0.1875 C 1.488281 -0.207031 1.613281 -0.238281 1.65625 -0.28125 C 1.707031 -0.332031 1.734375 -0.394531 1.734375 -0.46875 L 1.734375 -7.875 C 1.734375 -7.945312 1.707031 -8.003906 1.65625 -8.046875 C 1.613281 -8.097656 1.488281 -8.132812 1.28125 -8.15625 L 1.28125 -8.34375 Z M 4.5625 -8.34375 "/></g></g></g><g fill="#000000" fill-opacity="1"><g transform="translate(498.84223, 191.502859)"><g/></g></g><g fill="#000000" fill-opacity="1"><g transform="translate(509.515116, 191.502859)"><g/></g></g><g clip-path="url(#f661535b17)"><path fill="#d3101f" d="M 461.382812 215.023438 C 469.644531 215.542969 477.886719 216.042969 486.128906 216.472656 C 486.832031 216.152344 487.878906 215.941406 489.4375 215.84375 C 531.816406 213.675781 579.332031 212.464844 677.761719 207.34375 C 660.65625 206.199219 579.789062 209.058594 529.183594 210.640625 C 504.882812 211.40625 480.574219 212.417969 456.300781 213.894531 C 455.855469 213.902344 453.421875 214.128906 450.726562 214.496094 C 454.296875 214.613281 457.859375 214.796875 461.382812 215.023438 Z M 461.382812 215.023438 " fill-opacity="1" fill-rule="nonzero"/></g><g clip-path="url(#1e9dc0daa7)"><path fill="#000000" d="M 710.90625 216.089844 C 710.378906 214.660156 709.832031 213.265625 709.019531 212 C 709.847656 210.789062 710.1875 209.441406 710.066406 207.78125 C 710.023438 207.316406 709.941406 206.859375 709.820312 206.40625 C 709.605469 205.460938 709.3125 204.15625 709.75 203.710938 L 709.792969 203.65625 C 709.980469 203.464844 710.105469 203.242188 710.167969 202.984375 C 710.1875 202.882812 710.203125 202.78125 710.214844 202.691406 L 710.214844 202.5625 C 710.1875 199.605469 709.503906 197.683594 706.097656 196.570312 C 703.949219 195.871094 701.425781 195.859375 699.191406 195.851562 L 698.28125 195.851562 C 695.023438 195.816406 691.769531 195.652344 688.671875 195.378906 C 686.570312 195.03125 684.445312 194.292969 682.390625 193.582031 C 681.722656 193.347656 681.054688 193.117188 680.394531 192.898438 C 678.316406 192.226562 676.242188 191.535156 674.164062 190.851562 C 670.675781 189.703125 667.058594 188.511719 663.488281 187.363281 C 650.710938 183.253906 637.050781 179.039062 623.03125 176.578125 C 597.628906 171.625 572.972656 170.59375 549.777344 173.519531 C 527.015625 176.386719 506.714844 187.097656 487.085938 197.445312 L 483.289062 199.449219 C 470.683594 199.503906 454.269531 200.148438 438.777344 204.640625 C 429.433594 207.34375 419.8125 211.070312 410.167969 215.726562 L 407.574219 216.972656 L 415.132812 216.953125 L 415.25 216.910156 C 421.589844 214.167969 431.601562 210.277344 438.476562 208.148438 C 453.660156 203.4375 469.855469 202.765625 483.6875 202.71875 C 483.957031 202.71875 484.207031 202.660156 484.445312 202.535156 L 484.492188 202.507812 C 485.910156 201.769531 487.324219 201.023438 488.734375 200.277344 C 507.769531 190.242188 527.453125 179.859375 549.367188 176.859375 C 571.992188 173.765625 596.519531 174.738281 622.285156 179.765625 C 636.039062 182.179688 649.738281 186.398438 662.578125 190.503906 C 666.484375 191.753906 670.4375 193.054688 674.265625 194.320312 L 678.882812 195.84375 L 681.039062 196.589844 C 683.328125 197.382812 685.695312 198.210938 688.089844 198.582031 L 688.207031 198.601562 L 688.390625 198.628906 C 691.640625 198.929688 695.210938 199.09375 699.320312 199.128906 C 701.316406 199.152344 703.296875 199.351562 705.257812 199.730469 C 706.050781 199.875 706.453125 200.160156 706.660156 200.578125 C 702.109375 200.597656 697.679688 201.5625 693.910156 202.519531 L 692.855469 202.78125 C 690.011719 203.484375 686.789062 204.285156 684.265625 205.816406 C 683.773438 206.117188 683.492188 206.597656 683.480469 207.089844 C 683.460938 207.265625 683.472656 207.4375 683.507812 207.609375 C 684.65625 213.203125 690.785156 213.621094 692.800781 213.757812 C 697.597656 214.085938 702.082031 213.996094 706.113281 213.484375 C 706.878906 214.511719 707.390625 215.652344 707.753906 216.5625 L 707.917969 216.972656 L 711.234375 216.972656 Z M 705.75 210.25 C 702.570312 210.640625 699.265625 210.640625 695.867188 210.597656 L 695.132812 210.597656 C 692.132812 210.578125 688.453125 210.558594 687.105469 208.027344 C 688.765625 207.261719 690.660156 206.773438 692.488281 206.289062 L 693.9375 205.90625 C 698.785156 204.566406 702.761719 203.921875 706.359375 203.875 C 706.316406 204.640625 706.453125 205.460938 706.578125 206.269531 C 706.898438 208.265625 707.007812 209.550781 705.75 210.25 Z M 705.75 210.25 " fill-opacity="1" fill-rule="nonzero"/></g><path fill="#000000" d="M 656.585938 199.695312 C 656.585938 199.695312 653.890625 200.722656 652.714844 200.953125 C 650.738281 201.324219 643.960938 202.089844 643.960938 202.089844 C 650.773438 202.671875 679.683594 200.878906 678.417969 200.878906 C 671.585938 200.878906 661.90625 200.140625 656.585938 199.695312 Z M 656.585938 199.695312 " fill-opacity="1" fill-rule="nonzero"/><path fill="#000000" d="M 658.371094 193.65625 C 659.445312 192.5625 658.398438 191.953125 658.105469 191.851562 C 629.871094 182.398438 599.214844 177.226562 569.277344 177.707031 C 566.789062 177.753906 564.304688 177.828125 561.835938 177.945312 C 543.355469 178.835938 525.3125 184.558594 508.800781 192.980469 L 508.773438 192.980469 C 508.453125 193.136719 508.132812 193.300781 507.835938 193.464844 C 502.273438 196.363281 496.875 199.542969 491.648438 203.011719 C 490.265625 204.019531 490.554688 204.777344 492.085938 204.976562 C 493.808594 205.113281 496.503906 205.050781 498.652344 205.070312 C 501.347656 205.105469 512.105469 204.914062 523.234375 204.6875 C 532.910156 204.484375 542.855469 204.257812 548.027344 204.09375 C 565.667969 203.554688 583.277344 203 600.925781 202.71875 C 610.492188 202.5625 620.054688 202.363281 629.597656 201.851562 C 635.464844 201.542969 641.984375 201.570312 647.625 199.738281 C 651.695312 198.492188 655.355469 196.707031 658.371094 193.65625 Z M 494.882812 203.246094 C 497.609375 201.511719 500.386719 199.835938 503.214844 198.226562 C 502.640625 199.703125 502.640625 201.351562 503.5 203.09375 C 500.667969 203.183594 497.742188 203.363281 494.882812 203.246094 Z M 562.34375 201.535156 C 552 201.890625 541.652344 202.335938 531.296875 202.582031 L 523.199219 202.753906 L 516.824219 202.875 C 518.382812 200.066406 518.308594 197.820312 517.515625 196.179688 C 516.597656 194.238281 514.710938 193.144531 513.371094 192.925781 C 528.589844 185.648438 544.984375 180.804688 561.816406 179.910156 C 564.304688 179.785156 566.808594 179.695312 569.304688 179.648438 C 566.089844 186.542969 564.175781 194.195312 562.34375 201.535156 Z M 572.472656 201.578125 L 570.46875 201.597656 C 570.996094 195.96875 573.191406 187.226562 574.476562 181.722656 C 574.476562 181.722656 572.984375 196.125 572.472656 201.578125 Z M 620.609375 200.277344 C 608.285156 200.714844 595.953125 200.832031 583.628906 200.980469 L 580.195312 201.042969 C 580.277344 193.929688 580.878906 186.824219 581.300781 179.730469 C 592.671875 180.117188 603.96875 181.257812 615.191406 183.15625 C 615.210938 183.179688 615.234375 183.207031 615.261719 183.226562 C 621.09375 188.246094 626.492188 193.894531 631.476562 199.785156 C 627.851562 200.003906 624.226562 200.148438 620.609375 200.277344 Z M 636.894531 199.402344 C 635.902344 199.484375 634.898438 199.550781 633.898438 199.621094 C 629.261719 194.058594 624.253906 188.664062 618.859375 183.78125 C 631.449219 186.082031 643.820312 189.226562 655.976562 193.21875 C 653.417969 195.449219 650.429688 196.824219 647.113281 197.847656 C 643.796875 198.867188 640.28125 199.113281 636.894531 199.402344 Z M 636.894531 199.402344 " fill-opacity="1" fill-rule="nonzero"/></svg>