<svg xmlns="http://www.w3.org/2000/svg" xmlns:xlink="http://www.w3.org/1999/xlink" width="500" zoomAndPan="magnify" viewBox="0 0 375 374.999991" height="500" preserveAspectRatio="xMidYMid meet" version="1.0"><defs><g/><clipPath id="7d6d361d77"><path d="M 157 130 L 270 130 L 270 135.257812 L 157 135.257812 Z M 157 130 " clip-rule="nonzero"/></clipPath><clipPath id="79477be630"><path d="M 136.378906 113 L 285.636719 113 L 285.636719 135.257812 L 136.378906 135.257812 Z M 136.378906 113 " clip-rule="nonzero"/></clipPath></defs><g fill="#000000" fill-opacity="1"><g transform="translate(89.391525, 116.804666)"><g><path d="M 15.8125 -13.15625 L 15.8125 0 L 14.46875 0 L 14.46875 -10.53125 L 9.296875 -1.671875 L 8.640625 -1.671875 L 3.484375 -10.46875 L 3.484375 0 L 2.140625 0 L 2.140625 -13.15625 L 3.296875 -13.15625 L 9 -3.40625 L 14.65625 -13.15625 Z M 15.8125 -13.15625 "/></g></g></g><g fill="#000000" fill-opacity="1"><g transform="translate(107.338615, 116.804666)"><g><path d="M 10.390625 -3.515625 L 3.0625 -3.515625 L 1.484375 0 L 0.03125 0 L 6.046875 -13.15625 L 7.421875 -13.15625 L 13.4375 0 L 11.96875 0 Z M 9.890625 -4.640625 L 6.734375 -11.703125 L 3.578125 -4.640625 Z M 9.890625 -4.640625 "/></g></g></g><g fill="#000000" fill-opacity="1"><g transform="translate(120.813026, 116.804666)"><g><path d="M 11.125 0 L 8.125 -4.234375 C 7.78125 -4.191406 7.425781 -4.171875 7.0625 -4.171875 L 3.53125 -4.171875 L 3.53125 0 L 2.140625 0 L 2.140625 -13.15625 L 7.0625 -13.15625 C 8.75 -13.15625 10.066406 -12.753906 11.015625 -11.953125 C 11.960938 -11.148438 12.4375 -10.046875 12.4375 -8.640625 C 12.4375 -7.617188 12.175781 -6.753906 11.65625 -6.046875 C 11.144531 -5.335938 10.40625 -4.828125 9.4375 -4.515625 L 12.65625 0 Z M 7.03125 -5.359375 C 8.332031 -5.359375 9.328125 -5.644531 10.015625 -6.21875 C 10.703125 -6.800781 11.046875 -7.609375 11.046875 -8.640625 C 11.046875 -9.710938 10.703125 -10.53125 10.015625 -11.09375 C 9.328125 -11.664062 8.332031 -11.953125 7.03125 -11.953125 L 3.53125 -11.953125 L 3.53125 -5.359375 Z M 7.03125 -5.359375 "/></g></g></g><g fill="#000000" fill-opacity="1"><g transform="translate(134.400195, 116.804666)"><g><path d="M 6.21875 -6.1875 L 3.53125 -3.453125 L 3.53125 0 L 2.140625 0 L 2.140625 -13.15625 L 3.53125 -13.15625 L 3.53125 -5.203125 L 11.265625 -13.15625 L 12.859375 -13.15625 L 7.15625 -7.203125 L 13.25 0 L 11.59375 0 Z M 6.21875 -6.1875 "/></g></g></g><g fill="#000000" fill-opacity="1"><g transform="translate(147.761853, 116.804666)"><g><path d="M 10.390625 -3.515625 L 3.0625 -3.515625 L 1.484375 0 L 0.03125 0 L 6.046875 -13.15625 L 7.421875 -13.15625 L 13.4375 0 L 11.96875 0 Z M 9.890625 -4.640625 L 6.734375 -11.703125 L 3.578125 -4.640625 Z M 9.890625 -4.640625 "/></g></g></g><g fill="#000000" fill-opacity="1"><g transform="translate(161.236264, 116.804666)"><g><path d="M 4.703125 -11.953125 L 0.078125 -11.953125 L 0.078125 -13.15625 L 10.71875 -13.15625 L 10.71875 -11.953125 L 6.09375 -11.953125 L 6.09375 0 L 4.703125 0 Z M 4.703125 -11.953125 "/></g></g></g><g fill="#000000" fill-opacity="1"><g transform="translate(172.023311, 116.804666)"><g><path d="M 7.890625 0.109375 C 6.585938 0.109375 5.40625 -0.179688 4.34375 -0.765625 C 3.289062 -1.347656 2.46875 -2.144531 1.875 -3.15625 C 1.28125 -4.175781 0.984375 -5.316406 0.984375 -6.578125 C 0.984375 -7.847656 1.28125 -8.988281 1.875 -10 C 2.46875 -11.007812 3.289062 -11.804688 4.34375 -12.390625 C 5.40625 -12.972656 6.585938 -13.265625 7.890625 -13.265625 C 9.191406 -13.265625 10.363281 -12.976562 11.40625 -12.40625 C 12.457031 -11.832031 13.285156 -11.035156 13.890625 -10.015625 C 14.492188 -8.992188 14.796875 -7.847656 14.796875 -6.578125 C 14.796875 -5.316406 14.492188 -4.171875 13.890625 -3.140625 C 13.285156 -2.117188 12.457031 -1.320312 11.40625 -0.75 C 10.363281 -0.175781 9.191406 0.109375 7.890625 0.109375 Z M 7.890625 -1.125 C 8.929688 -1.125 9.867188 -1.359375 10.703125 -1.828125 C 11.546875 -2.296875 12.207031 -2.945312 12.6875 -3.78125 C 13.164062 -4.613281 13.40625 -5.546875 13.40625 -6.578125 C 13.40625 -7.609375 13.164062 -8.539062 12.6875 -9.375 C 12.207031 -10.207031 11.546875 -10.859375 10.703125 -11.328125 C 9.867188 -11.796875 8.929688 -12.03125 7.890625 -12.03125 C 6.847656 -12.03125 5.90625 -11.796875 5.0625 -11.328125 C 4.21875 -10.859375 3.550781 -10.207031 3.0625 -9.375 C 2.582031 -8.539062 2.34375 -7.609375 2.34375 -6.578125 C 2.34375 -5.546875 2.582031 -4.613281 3.0625 -3.78125 C 3.550781 -2.945312 4.21875 -2.296875 5.0625 -1.828125 C 5.90625 -1.359375 6.847656 -1.125 7.890625 -1.125 Z M 7.890625 -1.125 "/></g></g></g><g fill="#000000" fill-opacity="1"><g transform="translate(95.937905, 122.810332)"><g><path d="M 2 -1.515625 L 3.453125 -1.515625 L 2.703125 -3.375 Z M 3.796875 -4.09375 L 3.796875 -4 C 3.734375 -4 3.691406 -3.988281 3.671875 -3.96875 C 3.660156 -3.945312 3.65625 -3.929688 3.65625 -3.921875 C 3.65625 -3.898438 3.664062 -3.851562 3.6875 -3.78125 C 3.71875 -3.71875 3.78125 -3.570312 3.875 -3.34375 L 5.09375 -0.328125 C 5.125 -0.242188 5.148438 -0.179688 5.171875 -0.140625 C 5.203125 -0.109375 5.25 -0.09375 5.3125 -0.09375 L 5.3125 0 L 3.78125 0 L 3.78125 -0.09375 C 3.832031 -0.09375 3.867188 -0.101562 3.890625 -0.125 C 3.910156 -0.144531 3.921875 -0.164062 3.921875 -0.1875 C 3.921875 -0.1875 3.894531 -0.265625 3.84375 -0.421875 L 3.65625 -0.890625 L 1.8125 -0.890625 L 1.609375 -0.328125 C 1.578125 -0.234375 1.5625 -0.179688 1.5625 -0.171875 C 1.5625 -0.148438 1.566406 -0.128906 1.578125 -0.109375 C 1.597656 -0.0976562 1.640625 -0.09375 1.703125 -0.09375 L 1.703125 0 L 0.3125 0 L 0.3125 -0.09375 C 0.351562 -0.09375 0.382812 -0.0976562 0.40625 -0.109375 C 0.425781 -0.117188 0.441406 -0.132812 0.453125 -0.15625 C 0.472656 -0.175781 0.488281 -0.207031 0.5 -0.25 C 0.519531 -0.289062 0.546875 -0.34375 0.578125 -0.40625 L 1.75 -3.484375 C 1.789062 -3.585938 1.828125 -3.6875 1.859375 -3.78125 C 1.890625 -3.875 1.90625 -3.925781 1.90625 -3.9375 C 1.90625 -3.945312 1.894531 -3.957031 1.875 -3.96875 C 1.863281 -3.976562 1.820312 -3.988281 1.75 -4 L 1.75 -4.09375 Z M 3.796875 -4.09375 "/></g></g></g><g fill="#000000" fill-opacity="1"><g transform="translate(104.422546, 122.810332)"><g><path d="M 2.265625 -4.09375 L 2.265625 -4 C 2.171875 -3.988281 2.109375 -3.972656 2.078125 -3.953125 C 2.054688 -3.929688 2.046875 -3.90625 2.046875 -3.875 L 2.046875 -1.78125 C 2.046875 -1.5 2.125 -1.285156 2.28125 -1.140625 C 2.4375 -1.003906 2.6875 -0.9375 3.03125 -0.9375 C 3.40625 -0.9375 3.660156 -1.015625 3.796875 -1.171875 C 3.941406 -1.328125 4.015625 -1.53125 4.015625 -1.78125 L 4.015625 -3.875 C 4.015625 -3.90625 4 -3.929688 3.96875 -3.953125 C 3.945312 -3.972656 3.890625 -3.988281 3.796875 -4 L 3.796875 -4.09375 L 5.40625 -4.09375 L 5.40625 -4 C 5.3125 -3.988281 5.25 -3.972656 5.21875 -3.953125 C 5.195312 -3.929688 5.1875 -3.90625 5.1875 -3.875 L 5.1875 -1.765625 C 5.1875 -1.179688 5.007812 -0.734375 4.65625 -0.421875 C 4.300781 -0.109375 3.757812 0.046875 3.03125 0.046875 C 2.65625 0.046875 2.332031 0.00390625 2.0625 -0.078125 C 1.789062 -0.160156 1.566406 -0.28125 1.390625 -0.4375 C 1.222656 -0.59375 1.09375 -0.78125 1 -1 C 0.914062 -1.226562 0.875 -1.484375 0.875 -1.765625 L 0.875 -3.875 C 0.875 -3.90625 0.859375 -3.929688 0.828125 -3.953125 C 0.804688 -3.972656 0.75 -3.988281 0.65625 -4 L 0.65625 -4.09375 Z M 2.265625 -4.09375 "/></g></g></g><g fill="#000000" fill-opacity="1"><g transform="translate(113.343429, 122.810332)"><g><path d="M 0.21875 -4.3125 L 0.3125 -4.3125 C 0.320312 -4.21875 0.335938 -4.15625 0.359375 -4.125 C 0.378906 -4.101562 0.40625 -4.09375 0.4375 -4.09375 L 4.3125 -4.09375 C 4.34375 -4.09375 4.367188 -4.101562 4.390625 -4.125 C 4.410156 -4.15625 4.425781 -4.21875 4.4375 -4.3125 L 4.53125 -4.3125 L 4.53125 -2.9375 L 4.4375 -2.9375 C 4.425781 -3.03125 4.410156 -3.085938 4.390625 -3.109375 C 4.367188 -3.140625 4.335938 -3.15625 4.296875 -3.15625 L 2.96875 -3.15625 L 2.96875 -0.234375 C 2.96875 -0.203125 2.976562 -0.171875 3 -0.140625 C 3.019531 -0.117188 3.082031 -0.101562 3.1875 -0.09375 L 3.1875 0 L 1.578125 0 L 1.578125 -0.09375 C 1.671875 -0.101562 1.726562 -0.117188 1.75 -0.140625 C 1.78125 -0.160156 1.796875 -0.191406 1.796875 -0.234375 L 1.796875 -3.15625 L 0.453125 -3.15625 C 0.410156 -3.15625 0.378906 -3.140625 0.359375 -3.109375 C 0.335938 -3.085938 0.320312 -3.03125 0.3125 -2.9375 L 0.21875 -2.9375 Z M 0.21875 -4.3125 "/></g></g></g><g fill="#000000" fill-opacity="1"><g transform="translate(120.963381, 122.810332)"><g><path d="M 1.53125 -2.046875 C 1.53125 -1.878906 1.5625 -1.722656 1.625 -1.578125 C 1.695312 -1.441406 1.789062 -1.320312 1.90625 -1.21875 C 2.019531 -1.113281 2.15625 -1.035156 2.3125 -0.984375 C 2.46875 -0.929688 2.632812 -0.90625 2.8125 -0.90625 C 2.988281 -0.90625 3.15625 -0.929688 3.3125 -0.984375 C 3.46875 -1.035156 3.601562 -1.109375 3.71875 -1.203125 C 3.832031 -1.304688 3.921875 -1.425781 3.984375 -1.5625 C 4.054688 -1.707031 4.09375 -1.867188 4.09375 -2.046875 C 4.09375 -2.222656 4.054688 -2.378906 3.984375 -2.515625 C 3.921875 -2.660156 3.832031 -2.78125 3.71875 -2.875 C 3.613281 -2.976562 3.476562 -3.054688 3.3125 -3.109375 C 3.15625 -3.171875 2.988281 -3.203125 2.8125 -3.203125 C 2.632812 -3.203125 2.46875 -3.171875 2.3125 -3.109375 C 2.15625 -3.054688 2.019531 -2.976562 1.90625 -2.875 C 1.789062 -2.78125 1.695312 -2.660156 1.625 -2.515625 C 1.5625 -2.378906 1.53125 -2.222656 1.53125 -2.046875 Z M 2.8125 -4.140625 C 3.15625 -4.140625 3.472656 -4.09375 3.765625 -4 C 4.066406 -3.914062 4.328125 -3.78125 4.546875 -3.59375 C 4.765625 -3.414062 4.9375 -3.195312 5.0625 -2.9375 C 5.1875 -2.675781 5.25 -2.378906 5.25 -2.046875 C 5.25 -1.710938 5.179688 -1.414062 5.046875 -1.15625 C 4.921875 -0.894531 4.75 -0.675781 4.53125 -0.5 C 4.3125 -0.320312 4.054688 -0.1875 3.765625 -0.09375 C 3.472656 0 3.15625 0.046875 2.8125 0.046875 C 2.457031 0.046875 2.128906 0 1.828125 -0.09375 C 1.535156 -0.195312 1.28125 -0.335938 1.0625 -0.515625 C 0.84375 -0.703125 0.671875 -0.921875 0.546875 -1.171875 C 0.429688 -1.429688 0.375 -1.722656 0.375 -2.046875 C 0.375 -2.378906 0.4375 -2.675781 0.5625 -2.9375 C 0.6875 -3.195312 0.859375 -3.414062 1.078125 -3.59375 C 1.296875 -3.78125 1.550781 -3.914062 1.84375 -4 C 2.144531 -4.09375 2.46875 -4.140625 2.8125 -4.140625 Z M 2.8125 -4.140625 "/></g></g></g><g fill="#000000" fill-opacity="1"><g transform="translate(129.448022, 122.810332)"><g/></g></g><g fill="#000000" fill-opacity="1"><g transform="translate(134.684231, 122.810332)"><g><path d="M 3.015625 -0.921875 C 3.390625 -0.921875 3.675781 -1.015625 3.875 -1.203125 C 4.070312 -1.390625 4.171875 -1.671875 4.171875 -2.046875 C 4.171875 -2.421875 4.070312 -2.703125 3.875 -2.890625 C 3.675781 -3.085938 3.390625 -3.1875 3.015625 -3.1875 L 2.015625 -3.1875 L 2.015625 -0.921875 Z M 3.25 -4.09375 C 3.5625 -4.09375 3.84375 -4.046875 4.09375 -3.953125 C 4.351562 -3.867188 4.570312 -3.738281 4.75 -3.5625 C 4.9375 -3.394531 5.078125 -3.179688 5.171875 -2.921875 C 5.273438 -2.671875 5.328125 -2.378906 5.328125 -2.046875 C 5.328125 -1.785156 5.28125 -1.53125 5.1875 -1.28125 C 5.09375 -1.03125 4.953125 -0.8125 4.765625 -0.625 C 4.585938 -0.4375 4.363281 -0.285156 4.09375 -0.171875 C 3.820312 -0.0546875 3.503906 0 3.140625 0 L 0.625 0 L 0.625 -0.09375 C 0.726562 -0.101562 0.789062 -0.117188 0.8125 -0.140625 C 0.832031 -0.160156 0.84375 -0.191406 0.84375 -0.234375 L 0.84375 -3.875 C 0.84375 -3.90625 0.832031 -3.929688 0.8125 -3.953125 C 0.789062 -3.972656 0.726562 -3.988281 0.625 -4 L 0.625 -4.09375 Z M 3.25 -4.09375 "/></g></g></g><g fill="#000000" fill-opacity="1"><g transform="translate(143.168872, 122.810332)"><g><path d="M 4.75 -2.96875 L 4.65625 -2.96875 C 4.644531 -3.0625 4.628906 -3.117188 4.609375 -3.140625 C 4.585938 -3.171875 4.554688 -3.1875 4.515625 -3.1875 L 2.015625 -3.1875 L 2.015625 -2.53125 L 3.46875 -2.53125 C 3.539062 -2.53125 3.59375 -2.546875 3.625 -2.578125 C 3.664062 -2.609375 3.691406 -2.65625 3.703125 -2.71875 L 3.796875 -2.71875 L 3.796875 -1.5 L 3.703125 -1.5 C 3.691406 -1.550781 3.664062 -1.59375 3.625 -1.625 C 3.59375 -1.65625 3.539062 -1.671875 3.46875 -1.671875 L 2.015625 -1.671875 L 2.015625 -0.953125 L 4.515625 -0.953125 C 4.554688 -0.953125 4.585938 -0.960938 4.609375 -0.984375 C 4.628906 -1.003906 4.644531 -1.070312 4.65625 -1.1875 L 4.75 -1.1875 L 4.75 0.171875 L 4.65625 0.171875 C 4.644531 0.0976562 4.628906 0.0507812 4.609375 0.03125 C 4.585938 0.0078125 4.554688 0 4.515625 0 L 0.625 0 L 0.625 -0.09375 C 0.726562 -0.101562 0.789062 -0.117188 0.8125 -0.140625 C 0.832031 -0.160156 0.84375 -0.191406 0.84375 -0.234375 L 0.84375 -3.875 C 0.84375 -3.90625 0.832031 -3.929688 0.8125 -3.953125 C 0.789062 -3.972656 0.726562 -3.988281 0.625 -4 L 0.625 -4.09375 L 4.515625 -4.09375 C 4.554688 -4.09375 4.585938 -4.101562 4.609375 -4.125 C 4.628906 -4.15625 4.644531 -4.21875 4.65625 -4.3125 L 4.75 -4.3125 Z M 4.75 -2.96875 "/></g></g></g><g fill="#000000" fill-opacity="1"><g transform="translate(151.225067, 122.810332)"><g><path d="M 0.21875 -4.3125 L 0.3125 -4.3125 C 0.320312 -4.21875 0.335938 -4.15625 0.359375 -4.125 C 0.378906 -4.101562 0.40625 -4.09375 0.4375 -4.09375 L 4.3125 -4.09375 C 4.34375 -4.09375 4.367188 -4.101562 4.390625 -4.125 C 4.410156 -4.15625 4.425781 -4.21875 4.4375 -4.3125 L 4.53125 -4.3125 L 4.53125 -2.9375 L 4.4375 -2.9375 C 4.425781 -3.03125 4.410156 -3.085938 4.390625 -3.109375 C 4.367188 -3.140625 4.335938 -3.15625 4.296875 -3.15625 L 2.96875 -3.15625 L 2.96875 -0.234375 C 2.96875 -0.203125 2.976562 -0.171875 3 -0.140625 C 3.019531 -0.117188 3.082031 -0.101562 3.1875 -0.09375 L 3.1875 0 L 1.578125 0 L 1.578125 -0.09375 C 1.671875 -0.101562 1.726562 -0.117188 1.75 -0.140625 C 1.78125 -0.160156 1.796875 -0.191406 1.796875 -0.234375 L 1.796875 -3.15625 L 0.453125 -3.15625 C 0.410156 -3.15625 0.378906 -3.140625 0.359375 -3.109375 C 0.335938 -3.085938 0.320312 -3.03125 0.3125 -2.9375 L 0.21875 -2.9375 Z M 0.21875 -4.3125 "/></g></g></g><g fill="#000000" fill-opacity="1"><g transform="translate(158.845019, 122.810332)"><g><path d="M 2 -1.515625 L 3.453125 -1.515625 L 2.703125 -3.375 Z M 3.796875 -4.09375 L 3.796875 -4 C 3.734375 -4 3.691406 -3.988281 3.671875 -3.96875 C 3.660156 -3.945312 3.65625 -3.929688 3.65625 -3.921875 C 3.65625 -3.898438 3.664062 -3.851562 3.6875 -3.78125 C 3.71875 -3.71875 3.78125 -3.570312 3.875 -3.34375 L 5.09375 -0.328125 C 5.125 -0.242188 5.148438 -0.179688 5.171875 -0.140625 C 5.203125 -0.109375 5.25 -0.09375 5.3125 -0.09375 L 5.3125 0 L 3.78125 0 L 3.78125 -0.09375 C 3.832031 -0.09375 3.867188 -0.101562 3.890625 -0.125 C 3.910156 -0.144531 3.921875 -0.164062 3.921875 -0.1875 C 3.921875 -0.1875 3.894531 -0.265625 3.84375 -0.421875 L 3.65625 -0.890625 L 1.8125 -0.890625 L 1.609375 -0.328125 C 1.578125 -0.234375 1.5625 -0.179688 1.5625 -0.171875 C 1.5625 -0.148438 1.566406 -0.128906 1.578125 -0.109375 C 1.597656 -0.0976562 1.640625 -0.09375 1.703125 -0.09375 L 1.703125 0 L 0.3125 0 L 0.3125 -0.09375 C 0.351562 -0.09375 0.382812 -0.0976562 0.40625 -0.109375 C 0.425781 -0.117188 0.441406 -0.132812 0.453125 -0.15625 C 0.472656 -0.175781 0.488281 -0.207031 0.5 -0.25 C 0.519531 -0.289062 0.546875 -0.34375 0.578125 -0.40625 L 1.75 -3.484375 C 1.789062 -3.585938 1.828125 -3.6875 1.859375 -3.78125 C 1.890625 -3.875 1.90625 -3.925781 1.90625 -3.9375 C 1.90625 -3.945312 1.894531 -3.957031 1.875 -3.96875 C 1.863281 -3.976562 1.820312 -3.988281 1.75 -4 L 1.75 -4.09375 Z M 3.796875 -4.09375 "/></g></g></g><g fill="#000000" fill-opacity="1"><g transform="translate(167.32966, 122.810332)"><g><path d="M 2.328125 -4.09375 L 2.328125 -4 C 2.222656 -3.988281 2.160156 -3.972656 2.140625 -3.953125 C 2.117188 -3.929688 2.109375 -3.90625 2.109375 -3.875 L 2.109375 -0.234375 C 2.109375 -0.191406 2.117188 -0.160156 2.140625 -0.140625 C 2.160156 -0.117188 2.222656 -0.101562 2.328125 -0.09375 L 2.328125 0 L 0.71875 0 L 0.71875 -0.09375 C 0.8125 -0.101562 0.867188 -0.117188 0.890625 -0.140625 C 0.921875 -0.160156 0.9375 -0.191406 0.9375 -0.234375 L 0.9375 -3.875 C 0.9375 -3.90625 0.921875 -3.929688 0.890625 -3.953125 C 0.867188 -3.972656 0.8125 -3.988281 0.71875 -4 L 0.71875 -4.09375 Z M 2.328125 -4.09375 "/></g></g></g><g fill="#000000" fill-opacity="1"><g transform="translate(173.22023, 122.810332)"><g><path d="M 2.234375 -4.09375 L 2.234375 -4 C 2.140625 -3.988281 2.078125 -3.972656 2.046875 -3.953125 C 2.023438 -3.929688 2.015625 -3.90625 2.015625 -3.875 L 2.015625 -0.953125 L 4.6875 -0.953125 C 4.726562 -0.953125 4.757812 -0.960938 4.78125 -0.984375 C 4.8125 -1.003906 4.832031 -1.066406 4.84375 -1.171875 L 4.9375 -1.171875 L 4.9375 0.203125 L 4.84375 0.203125 C 4.832031 0.109375 4.8125 0.0507812 4.78125 0.03125 C 4.757812 0.0078125 4.726562 0 4.6875 0 L 0.625 0 L 0.625 -0.09375 C 0.726562 -0.101562 0.789062 -0.117188 0.8125 -0.140625 C 0.832031 -0.160156 0.84375 -0.191406 0.84375 -0.234375 L 0.84375 -3.875 C 0.84375 -3.90625 0.832031 -3.929688 0.8125 -3.953125 C 0.789062 -3.972656 0.726562 -3.988281 0.625 -4 L 0.625 -4.09375 Z M 2.234375 -4.09375 "/></g></g></g><g fill="#000000" fill-opacity="1"><g transform="translate(181.278953, 122.810332)"><g/></g></g><g fill="#000000" fill-opacity="1"><g transform="translate(186.515162, 122.810332)"><g/></g></g><g clip-path="url(#7d6d361d77)"><path fill="#d3101f" d="M 162.902344 134.351562 C 166.953125 134.605469 171 134.851562 175.042969 135.058594 C 175.386719 134.902344 175.898438 134.800781 176.664062 134.75 C 197.457031 133.6875 220.769531 133.09375 269.058594 130.582031 C 260.667969 130.019531 220.992188 131.421875 196.164062 132.199219 C 184.242188 132.574219 172.316406 133.070312 160.40625 133.796875 C 160.1875 133.800781 158.996094 133.910156 157.671875 134.089844 C 159.425781 134.148438 161.171875 134.238281 162.902344 134.351562 Z M 162.902344 134.351562 " fill-opacity="1" fill-rule="nonzero"/></g><g clip-path="url(#79477be630)"><path fill="#000000" d="M 285.320312 134.871094 C 285.058594 134.171875 284.792969 133.488281 284.394531 132.867188 C 284.800781 132.273438 284.964844 131.609375 284.90625 130.796875 C 284.886719 130.570312 284.84375 130.34375 284.789062 130.121094 C 284.679688 129.65625 284.539062 129.019531 284.75 128.800781 L 284.773438 128.773438 C 284.863281 128.679688 284.925781 128.570312 284.957031 128.441406 C 284.964844 128.394531 284.976562 128.34375 284.980469 128.300781 L 284.980469 128.238281 C 284.964844 126.785156 284.632812 125.839844 282.960938 125.296875 C 281.90625 124.953125 280.667969 124.949219 279.574219 124.945312 L 279.125 124.945312 C 277.527344 124.925781 275.929688 124.84375 274.410156 124.710938 C 273.378906 124.542969 272.339844 124.179688 271.328125 123.832031 C 271 123.714844 270.675781 123.601562 270.351562 123.496094 C 269.332031 123.164062 268.3125 122.824219 267.292969 122.492188 C 265.582031 121.925781 263.808594 121.34375 262.054688 120.777344 C 255.789062 118.765625 249.085938 116.695312 242.207031 115.488281 C 229.746094 113.058594 217.648438 112.550781 206.269531 113.988281 C 195.101562 115.394531 185.140625 120.648438 175.511719 125.726562 L 173.648438 126.707031 C 167.464844 126.734375 159.410156 127.050781 151.808594 129.253906 C 147.226562 130.582031 142.507812 132.410156 137.773438 134.695312 L 136.5 135.304688 L 140.210938 135.296875 L 140.269531 135.273438 C 143.378906 133.929688 148.289062 132.023438 151.664062 130.976562 C 159.113281 128.664062 167.058594 128.335938 173.84375 128.3125 C 173.976562 128.3125 174.097656 128.285156 174.214844 128.222656 L 174.238281 128.210938 C 174.933594 127.847656 175.628906 127.480469 176.320312 127.117188 C 185.660156 122.191406 195.316406 117.097656 206.066406 115.625 C 217.167969 114.109375 229.199219 114.585938 241.839844 117.050781 C 248.589844 118.238281 255.308594 120.304688 261.609375 122.320312 C 263.527344 122.933594 265.464844 123.570312 267.34375 124.191406 L 269.609375 124.9375 L 270.667969 125.304688 C 271.789062 125.695312 272.949219 126.101562 274.125 126.285156 L 274.183594 126.292969 L 274.273438 126.304688 C 275.867188 126.453125 277.621094 126.535156 279.636719 126.550781 C 280.617188 126.5625 281.585938 126.660156 282.546875 126.847656 C 282.9375 126.917969 283.132812 127.058594 283.238281 127.261719 C 281.003906 127.273438 278.832031 127.746094 276.980469 128.214844 L 276.460938 128.34375 C 275.070312 128.6875 273.488281 129.082031 272.25 129.832031 C 272.007812 129.980469 271.871094 130.214844 271.863281 130.457031 C 271.855469 130.542969 271.859375 130.628906 271.878906 130.710938 C 272.441406 133.457031 275.449219 133.660156 276.4375 133.730469 C 278.789062 133.890625 280.988281 133.84375 282.96875 133.59375 C 283.34375 134.097656 283.59375 134.65625 283.773438 135.105469 L 283.855469 135.304688 L 285.480469 135.304688 Z M 282.789062 132.007812 C 281.230469 132.199219 279.609375 132.199219 277.941406 132.179688 L 277.578125 132.179688 C 276.109375 132.167969 274.304688 132.160156 273.644531 130.917969 C 274.457031 130.542969 275.386719 130.300781 276.285156 130.066406 L 276.996094 129.875 C 279.371094 129.21875 281.324219 128.902344 283.089844 128.878906 C 283.066406 129.253906 283.132812 129.65625 283.195312 130.054688 C 283.351562 131.035156 283.40625 131.664062 282.789062 132.007812 Z M 282.789062 132.007812 " fill-opacity="1" fill-rule="nonzero"/></g><path fill="#000000" d="M 258.667969 126.828125 C 258.667969 126.828125 257.347656 127.335938 256.769531 127.445312 C 255.800781 127.628906 252.476562 128.003906 252.476562 128.003906 C 255.820312 128.289062 270 127.410156 269.378906 127.410156 C 266.027344 127.410156 261.277344 127.046875 258.667969 126.828125 Z M 258.667969 126.828125 " fill-opacity="1" fill-rule="nonzero"/><path fill="#000000" d="M 259.546875 123.867188 C 260.074219 123.332031 259.558594 123.03125 259.414062 122.980469 C 245.5625 118.34375 230.523438 115.804688 215.835938 116.042969 C 214.613281 116.066406 213.394531 116.101562 212.183594 116.160156 C 203.117188 116.597656 194.265625 119.402344 186.164062 123.535156 L 186.152344 123.535156 C 185.996094 123.613281 185.835938 123.691406 185.691406 123.773438 C 182.960938 125.195312 180.316406 126.753906 177.75 128.457031 C 177.070312 128.953125 177.214844 129.324219 177.964844 129.421875 C 178.808594 129.488281 180.132812 129.457031 181.1875 129.464844 C 182.507812 129.484375 187.785156 129.390625 193.246094 129.277344 C 197.992188 129.179688 202.871094 129.066406 205.410156 128.988281 C 214.066406 128.722656 222.703125 128.453125 231.363281 128.3125 C 236.054688 128.238281 240.746094 128.136719 245.429688 127.886719 C 248.308594 127.738281 251.507812 127.75 254.273438 126.851562 C 256.269531 126.238281 258.066406 125.363281 259.546875 123.867188 Z M 179.335938 128.570312 C 180.675781 127.71875 182.035156 126.898438 183.425781 126.109375 C 183.144531 126.832031 183.144531 127.640625 183.5625 128.496094 C 182.171875 128.539062 180.738281 128.628906 179.335938 128.570312 Z M 212.433594 127.730469 C 207.359375 127.90625 202.28125 128.125 197.203125 128.246094 L 193.230469 128.332031 L 190.101562 128.390625 C 190.863281 127.011719 190.828125 125.910156 190.441406 125.105469 C 189.988281 124.152344 189.0625 123.617188 188.40625 123.507812 C 195.875 119.9375 203.917969 117.5625 212.175781 117.125 C 213.394531 117.0625 214.625 117.015625 215.847656 116.996094 C 214.269531 120.375 213.332031 124.128906 212.433594 127.730469 Z M 217.402344 127.753906 L 216.421875 127.761719 C 216.679688 125 217.757812 120.710938 218.386719 118.011719 C 218.386719 118.011719 217.652344 125.078125 217.402344 127.753906 Z M 241.019531 127.117188 C 234.972656 127.328125 228.921875 127.386719 222.878906 127.460938 L 221.191406 127.492188 C 221.234375 124 221.527344 120.515625 221.734375 117.035156 C 227.3125 117.226562 232.855469 117.785156 238.359375 118.714844 C 238.371094 118.726562 238.382812 118.738281 238.394531 118.75 C 241.253906 121.210938 243.90625 123.984375 246.351562 126.875 C 244.570312 126.980469 242.792969 127.050781 241.019531 127.117188 Z M 249.007812 126.6875 C 248.519531 126.726562 248.03125 126.757812 247.539062 126.792969 C 245.265625 124.0625 242.804688 121.417969 240.160156 119.023438 C 246.335938 120.152344 252.40625 121.695312 258.371094 123.652344 C 257.113281 124.746094 255.648438 125.421875 254.023438 125.921875 C 252.394531 126.421875 250.671875 126.542969 249.007812 126.6875 Z M 249.007812 126.6875 " fill-opacity="1" fill-rule="nonzero"/></svg>