<?xml version="1.0" encoding="UTF-8"?>
<svg xmlns="http://www.w3.org/2000/svg" xmlns:xlink="http://www.w3.org/1999/xlink" 
     width="500" height="300" viewBox="0 0 2338 268" 
     preserveAspectRatio="xMidYMid meet" version="1.1">
  <title>Markato Logo</title>
  <desc>Markato company logo</desc>
  <g id="surface1">
    <path style=" stroke:none;fill-rule:nonzero;fill:rgb(99.215686%,99.215686%,99.215686%);fill-opacity:1;" d="M 0 0 C 771.539062 0 1543.078125 0 2338 0 C 2338 88.441406 2338 176.878906 2338 268 C 1566.460938 268 794.921875 268 0 268 C 0 179.558594 0 91.121094 0 0 Z M 0 0 "/>
    <path style=" stroke:none;fill-rule:nonzero;fill:rgb(2.352941%,2.352941%,2.352941%);fill-opacity:1;" d="M 1696.664062 50.25 C 1698.996094 50.273438 1698.996094 50.273438 1701.375 50.300781 C 1710.195312 50.429688 1718.972656 50.851562 1727.773438 51.445312 C 1728.726562 51.511719 1729.675781 51.574219 1730.65625 51.640625 C 1759.746094 53.628906 1788.730469 56.285156 1817.664062 59.894531 C 1818.859375 60.042969 1820.054688 60.191406 1821.289062 60.34375 C 1833.617188 61.882812 1845.792969 63.640625 1857.953125 66.207031 C 1862.289062 67.105469 1866.632812 67.804688 1871.011719 68.46875 C 1919.539062 75.898438 1967.382812 88.609375 2014.640625 101.695312 C 2015.742188 102 2016.839844 102.304688 2017.976562 102.617188 C 2024.441406 104.453125 2030.714844 106.640625 2037.011719 108.976562 C 2042.265625 110.859375 2047.636719 112.207031 2053.03125 113.628906 C 2056.710938 114.824219 2059.585938 116.320312 2062.800781 118.445312 C 2062.667969 122.792969 2061.253906 125.226562 2058.386719 128.316406 C 2040.761719 144.695312 2016.703125 153.464844 1993.402344 157.929688 C 1992.570312 158.09375 1991.742188 158.257812 1990.886719 158.425781 C 1969.199219 162.546875 1946.945312 162.859375 1924.949219 163.769531 C 1921.683594 163.90625 1918.417969 164.054688 1915.15625 164.203125 C 1876.074219 165.992188 1836.984375 166.722656 1797.871094 167.417969 C 1749.007812 168.289062 1700.15625 169.570312 1651.304688 171.007812 C 1648.578125 171.089844 1645.847656 171.167969 1643.121094 171.25 C 1627.246094 171.714844 1611.371094 172.183594 1595.496094 172.65625 C 1558.628906 173.75 1521.761719 174.769531 1484.890625 175.667969 C 1478.910156 175.816406 1472.933594 175.964844 1466.953125 176.117188 C 1418.453125 177.351562 1369.953125 178.496094 1321.433594 178.5625 C 1318.660156 178.566406 1315.882812 178.574219 1313.105469 178.585938 C 1308.820312 178.597656 1304.535156 178.601562 1300.253906 178.589844 C 1297.964844 178.585938 1295.671875 178.59375 1293.382812 178.601562 C 1292.03125 178.59375 1290.675781 178.585938 1289.285156 178.578125 C 1288.113281 178.574219 1286.941406 178.574219 1285.738281 178.570312 C 1282.570312 178.257812 1280.601562 177.492188 1277.882812 175.875 C 1278.328125 172.699219 1278.855469 171.308594 1281.171875 169.023438 C 1287.484375 164.320312 1293.898438 160.03125 1300.691406 156.058594 C 1301.71875 155.453125 1302.746094 154.847656 1303.804688 154.222656 C 1306 152.925781 1308.195312 151.632812 1310.394531 150.347656 C 1313.773438 148.359375 1317.136719 146.351562 1320.5 144.335938 C 1422.582031 83.554688 1533.617188 50.992188 1696.664062 50.25 Z M 1696.664062 50.25 "/>
    <path style=" stroke:none;fill-rule:nonzero;fill:rgb(1.960784%,1.960784%,1.960784%);fill-opacity:1;" d="M 1645.050781 23.6875 C 1647.191406 23.675781 1649.332031 23.667969 1651.472656 23.660156 C 1658.285156 23.636719 1665.097656 23.632812 1671.914062 23.628906 C 1673.070312 23.628906 1674.226562 23.628906 1675.421875 23.628906 C 1708.46875 23.613281 1741.332031 23.78125 1774.230469 27.25 C 1776.878906 27.523438 1779.527344 27.777344 1782.175781 28.023438 C 1846.125 34 1909.507812 46.144531 1971.796875 61.605469 C 1974.316406 62.230469 1976.839844 62.847656 1979.359375 63.464844 C 1988.125 65.617188 1996.824219 67.894531 2005.441406 70.589844 C 2007.835938 71.328125 2010.230469 72.070312 2012.625 72.808594 C 2013.941406 73.21875 2015.253906 73.625 2016.609375 74.042969 C 2020.457031 75.230469 2024.308594 76.402344 2028.164062 77.570312 C 2055.765625 85.917969 2083.195312 94.757812 2110.574219 103.8125 C 2122.5625 107.769531 2134.535156 111.683594 2146.667969 115.167969 C 2156.746094 118.078125 2166.648438 121.527344 2176.566406 124.9375 C 2200.480469 133.136719 2223.3125 134.164062 2248.394531 134.570312 C 2286.566406 135.214844 2286.566406 135.214844 2298.515625 147.160156 C 2302.832031 154.558594 2303.703125 160.269531 2303.300781 168.695312 C 2302.511719 169.882812 2301.722656 171.066406 2300.90625 172.285156 C 2300.707031 175.945312 2300.539062 179.296875 2301.5 182.855469 C 2303.300781 190.578125 2303.214844 199.253906 2299.859375 206.457031 C 2298.339844 210.242188 2298.398438 211.445312 2299.832031 215.367188 C 2301.113281 217.835938 2302.460938 220.269531 2303.878906 222.660156 C 2305.695312 226.125 2305.695312 226.125 2306.890625 233.304688 C 2301.757812 233.304688 2296.625 233.304688 2291.335938 233.304688 C 2287.78125 226.195312 2287.78125 226.195312 2284.15625 218.945312 C 2281.242188 218.976562 2281.242188 218.976562 2278.273438 219.003906 C 2270.996094 219.070312 2263.722656 219.109375 2256.449219 219.144531 C 2253.3125 219.160156 2250.179688 219.1875 2247.042969 219.21875 C 2242.511719 219.261719 2237.976562 219.28125 2233.445312 219.296875 C 2231.375 219.324219 2231.375 219.324219 2229.265625 219.351562 C 2214.457031 219.355469 2198.386719 217.675781 2187.199219 207.070312 C 2182 201.410156 2178.910156 196.726562 2178.339844 188.960938 C 2178.863281 184.25 2178.863281 184.25 2181.511719 181.742188 C 2193.957031 173.242188 2209.960938 170.125 2224.332031 166.304688 C 2225.355469 166.023438 2226.382812 165.746094 2227.441406 165.460938 C 2243.648438 161.117188 2259.792969 158.757812 2276.480469 157.101562 C 2279.121094 156.765625 2281.59375 156.242188 2284.15625 155.535156 C 2282.972656 155.164062 2281.789062 154.796875 2280.566406 154.414062 C 2279.902344 154.207031 2279.234375 153.996094 2278.546875 153.78125 C 2270.152344 151.839844 2261.570312 151.671875 2252.996094 151.390625 C 2250.425781 151.296875 2247.855469 151.203125 2245.285156 151.109375 C 2241.28125 150.964844 2237.28125 150.824219 2233.277344 150.691406 C 2202.488281 149.644531 2176.554688 143.066406 2147.578125 133.035156 C 2142.269531 131.195312 2136.957031 129.378906 2131.640625 127.554688 C 2130.578125 127.191406 2129.511719 126.824219 2128.414062 126.445312 C 2094.640625 114.78125 2094.640625 114.78125 2060.402344 104.585938 C 2054.542969 102.96875 2048.75 101.136719 2042.949219 99.3125 C 1950.707031 70.324219 1856.265625 49.75 1759.707031 42.097656 C 1758.839844 42.03125 1757.972656 41.960938 1757.078125 41.890625 C 1729.171875 39.726562 1701.234375 39.234375 1673.257812 39.257812 C 1671.679688 39.257812 1670.101562 39.257812 1668.476562 39.261719 C 1645.058594 39.28125 1621.871094 39.667969 1598.550781 41.875 C 1596.75 42.039062 1594.949219 42.199219 1593.148438 42.363281 C 1559.4375 45.421875 1526.019531 49.859375 1493.257812 58.625 C 1492.164062 58.917969 1491.066406 59.210938 1489.941406 59.511719 C 1462.8125 66.875 1436.539062 76.550781 1410.546875 87.191406 C 1409.765625 87.507812 1408.980469 87.828125 1408.171875 88.15625 C 1382.160156 98.78125 1356.867188 111.058594 1331.761719 123.65625 C 1327.824219 125.632812 1323.882812 127.597656 1319.9375 129.558594 C 1304.3125 137.367188 1288.898438 145.488281 1273.613281 153.9375 C 1268.800781 156.582031 1263.957031 159.164062 1259.113281 161.742188 C 1258.277344 162.1875 1257.441406 162.632812 1256.582031 163.09375 C 1249.480469 166.855469 1244.132812 167.6875 1236.191406 167.753906 C 1233.960938 167.78125 1231.734375 167.816406 1229.503906 167.847656 C 1228.320312 167.863281 1227.140625 167.878906 1225.921875 167.894531 C 1170.820312 168.699219 1116.273438 172.863281 1062.507812 185.445312 C 1061.636719 185.648438 1060.761719 185.851562 1059.863281 186.058594 C 1044.476562 189.65625 1029.570312 194.164062 1014.648438 199.355469 C 1013.589844 199.71875 1012.535156 200.082031 1011.445312 200.460938 C 998.035156 205.082031 984.703125 209.867188 971.5 215.058594 C 970.164062 215.578125 968.832031 216.101562 967.457031 216.640625 C 961.125 219.160156 954.933594 221.820312 948.8125 224.8125 C 929.652344 233.960938 913.484375 234.757812 892.605469 233.304688 C 898.40625 228.679688 905.015625 225.808594 911.671875 222.609375 C 913.804688 221.585938 913.804688 221.585938 915.976562 220.542969 C 926.480469 215.539062 937.113281 210.890625 947.867188 206.457031 C 949.917969 205.613281 949.917969 205.613281 952.011719 204.75 C 969.265625 197.726562 986.726562 191.394531 1004.402344 185.519531 C 1005.335938 185.210938 1006.269531 184.898438 1007.234375 184.582031 C 1039.8125 173.777344 1072.421875 165.75 1106.398438 160.738281 C 1109.285156 160.304688 1112.167969 159.851562 1115.054688 159.390625 C 1134.4375 156.335938 1153.796875 154.453125 1173.382812 153.230469 C 1175.101562 153.121094 1176.824219 153.011719 1178.546875 152.898438 C 1188.894531 152.21875 1199.128906 151.898438 1209.496094 152.160156 C 1235.730469 152.691406 1253.183594 149.109375 1275.46875 135.050781 C 1280.46875 131.9375 1285.652344 129.265625 1290.894531 126.597656 C 1292.695312 125.652344 1294.492188 124.707031 1296.289062 123.753906 C 1297.183594 123.285156 1298.078125 122.8125 1299 122.324219 C 1300.949219 121.296875 1302.894531 120.265625 1304.839844 119.230469 C 1395.640625 71.042969 1487.550781 36.757812 1590.34375 26.339844 C 1591.367188 26.234375 1592.394531 26.128906 1593.449219 26.019531 C 1610.660156 24.316406 1627.769531 23.726562 1645.050781 23.6875 Z M 1645.050781 23.6875 "/>
    <path style=" stroke:none;fill-rule:nonzero;fill:rgb(99.215686%,99.215686%,99.215686%);fill-opacity:1;" d="M 1644.019531 59.820312 C 1643.3125 63.839844 1642.3125 67.386719 1640.726562 71.144531 C 1628.683594 100.417969 1620.5625 130.855469 1612.910156 161.519531 C 1542.351562 165.183594 1471.785156 167.875 1401.125 167.5 C 1401.730469 164.25 1402.375 161.386719 1403.59375 158.300781 C 1406.1875 149.136719 1405.355469 141.488281 1400.765625 133.121094 C 1397.328125 128.539062 1392.910156 125.972656 1387.964844 123.230469 C 1386.777344 122.441406 1385.59375 121.652344 1384.375 120.839844 C 1396.039062 114.824219 1407.832031 109.378906 1419.96875 104.386719 C 1420.835938 104.03125 1421.707031 103.671875 1422.597656 103.304688 C 1462.917969 86.773438 1505.378906 74.480469 1548.296875 67 C 1549.5625 66.777344 1550.824219 66.554688 1552.128906 66.328125 C 1582.546875 61.113281 1613.175781 59.238281 1644.019531 59.820312 Z M 1644.019531 59.820312 "/>
    <path style=" stroke:none;fill-rule:nonzero;fill:rgb(99.215686%,99.215686%,99.215686%);fill-opacity:1;" d="M 1700.253906 59.820312 C 1715.949219 59.480469 1731.410156 60.546875 1747.050781 61.835938 C 1751.050781 62.160156 1755.054688 62.46875 1759.058594 62.769531 C 1782.734375 64.5625 1806.179688 67.230469 1829.65625 70.800781 C 1834.347656 71.5 1839.007812 72.019531 1843.742188 72.335938 C 1858.84375 73.503906 1866.277344 80.042969 1876.359375 91.046875 C 1879.273438 94.09375 1882.441406 96.785156 1885.644531 99.527344 C 1890.070312 103.421875 1894.199219 107.613281 1898.355469 111.792969 C 1899.210938 112.644531 1900.066406 113.496094 1900.949219 114.375 C 1905.789062 119.222656 1910.417969 124.183594 1914.886719 129.371094 C 1918.265625 133.265625 1921.785156 137.027344 1925.296875 140.800781 C 1934.773438 151.0625 1934.773438 151.0625 1934.773438 154.339844 C 1854.988281 157.546875 1775.324219 159.425781 1695.46875 159.125 C 1695.417969 149.390625 1695.515625 139.6875 1695.917969 129.960938 C 1695.96875 128.710938 1696.019531 127.460938 1696.070312 126.171875 C 1697.027344 104.03125 1698.660156 81.921875 1700.253906 59.820312 Z M 1700.253906 59.820312 "/>
    <path style=" stroke:none;fill-rule:nonzero;fill:rgb(83.137256%,9.019608%,14.901961%);fill-opacity:1;" d="M 2142.96875 187.839844 C 2139.113281 190.410156 2138.070312 190.539062 2133.625 190.601562 C 2131.773438 190.644531 2131.773438 190.644531 2129.890625 190.683594 C 2127.8125 190.71875 2127.8125 190.71875 2125.691406 190.753906 C 2122.542969 190.835938 2119.394531 190.921875 2116.246094 191.015625 C 2115.371094 191.042969 2114.492188 191.070312 2113.589844 191.097656 C 2100.386719 191.53125 2087.203125 192.367188 2074.019531 193.148438 C 2071.289062 193.308594 2068.554688 193.46875 2065.824219 193.628906 C 2054.972656 194.265625 2044.121094 194.917969 2033.269531 195.574219 C 2028.855469 195.839844 2024.441406 196.105469 2020.023438 196.363281 C 2019.203125 196.414062 2018.378906 196.460938 2017.53125 196.511719 C 2003.265625 197.347656 1989 197.855469 1974.71875 198.199219 C 1967.960938 198.371094 1961.328125 198.648438 1954.625 199.484375 C 1946.496094 200.320312 1938.296875 200.546875 1930.136719 200.925781 C 1929.050781 200.976562 1927.96875 201.027344 1926.851562 201.082031 C 1910.667969 201.84375 1894.480469 202.445312 1878.289062 202.960938 C 1875.328125 203.054688 1872.371094 203.148438 1869.414062 203.242188 C 1868.03125 203.289062 1866.648438 203.332031 1865.222656 203.375 C 1839.824219 204.195312 1814.445312 205.285156 1789.0625 206.464844 C 1777.484375 207.003906 1765.90625 207.535156 1754.332031 208.0625 C 1752.535156 208.144531 1752.535156 208.144531 1750.707031 208.226562 C 1724.105469 209.441406 1697.503906 210.59375 1670.898438 211.726562 C 1669.769531 211.773438 1668.644531 211.820312 1667.484375 211.871094 C 1653.625 212.460938 1639.769531 213.046875 1625.910156 213.632812 C 1613.714844 214.148438 1601.519531 214.667969 1589.324219 215.1875 C 1545.183594 217.058594 1501.042969 218.925781 1456.898438 220.769531 C 1455.261719 220.835938 1453.625 220.90625 1451.988281 220.972656 C 1447.253906 221.171875 1442.519531 221.371094 1437.78125 221.566406 C 1376.050781 224.136719 1376.050781 224.136719 1314.324219 226.910156 C 1311.976562 227.019531 1309.628906 227.128906 1307.277344 227.238281 C 1284.449219 227.523438 1284.449219 227.523438 1261.921875 230.339844 C 1257.550781 231.125 1253.234375 231.101562 1248.808594 231.078125 C 1247.816406 231.074219 1246.824219 231.074219 1245.800781 231.070312 C 1232.867188 230.964844 1219.972656 230.175781 1207.0625 229.414062 C 1204.300781 229.257812 1201.539062 229.097656 1198.777344 228.941406 C 1164.113281 226.949219 1129.464844 224.742188 1094.816406 222.535156 C 1094.816406 222.140625 1094.816406 221.746094 1094.816406 221.339844 C 1110.335938 218.875 1125.875 218.046875 1141.554688 217.226562 C 1144.375 217.074219 1147.195312 216.921875 1150.015625 216.769531 C 1154.390625 216.53125 1158.769531 216.292969 1163.144531 216.0625 C 1172.683594 215.550781 1182.222656 215.011719 1191.761719 214.457031 C 1245.386719 211.332031 1299.097656 208.574219 1352.808594 207.449219 C 1365.183594 207.1875 1377.523438 206.691406 1389.882812 206.015625 C 1422.839844 204.21875 1455.839844 203.601562 1488.832031 202.820312 C 1497.488281 202.617188 1506.140625 202.410156 1514.792969 202.195312 C 1515.773438 202.171875 1516.75 202.148438 1517.757812 202.125 C 1523.585938 201.980469 1529.414062 201.832031 1535.242188 201.675781 C 1537.042969 201.628906 1538.84375 201.582031 1540.644531 201.539062 C 1551.316406 201.335938 1551.316406 201.335938 1561.941406 200.398438 C 1569.585938 199.433594 1577.3125 199.460938 1585.003906 199.308594 C 1588.019531 199.246094 1591.03125 199.179688 1594.046875 199.113281 C 1598.363281 199.015625 1602.679688 198.921875 1606.996094 198.828125 C 1618.355469 198.582031 1629.710938 198.320312 1641.070312 198.050781 C 1642.757812 198.011719 1642.757812 198.011719 1644.484375 197.96875 C 1662.929688 197.53125 1681.367188 196.953125 1699.804688 196.214844 C 1728.328125 195.078125 1756.855469 194.273438 1785.390625 193.523438 C 1789.160156 193.421875 1792.925781 193.324219 1796.695312 193.222656 C 1797.628906 193.199219 1798.5625 193.175781 1799.523438 193.148438 C 1812.261719 192.8125 1824.996094 192.4375 1837.734375 192.027344 C 1939.472656 188.75 2041.179688 187.398438 2142.96875 187.839844 Z M 2142.96875 187.839844 "/>
    <path style=" stroke:none;fill-rule:nonzero;fill:rgb(99.215686%,99.215686%,99.215686%);fill-opacity:1;" d="M 956.46875 64.160156 C 965.320312 71.785156 972.808594 83.105469 974.328125 94.921875 C 974.492188 97.910156 974.527344 100.867188 974.492188 103.863281 C 974.480469 104.917969 974.472656 105.972656 974.464844 107.0625 C 974.257812 115.183594 973.097656 121.992188 969.179688 129.214844 C 968.671875 130.152344 968.167969 131.089844 967.644531 132.054688 C 960.671875 143.550781 950.769531 151.21875 938.070312 155.535156 C 922.917969 158.769531 907.703125 157.808594 894.140625 150.101562 C 880.769531 141.316406 874.863281 131.03125 869.871094 116.054688 C 868.226562 98.308594 870.46875 84.390625 881.503906 70.007812 C 900.585938 48.929688 934.136719 47.914062 956.46875 64.160156 Z M 956.46875 64.160156 "/>
    <path style=" stroke:none;fill-rule:nonzero;fill:rgb(0.784314%,0.784314%,0.784314%);fill-opacity:1;" d="M 380.492188 43.070312 C 453.464844 43.070312 453.464844 43.070312 467.613281 55.789062 C 475.601562 64.390625 478.273438 73.941406 478.085938 85.46875 C 478.074219 86.574219 478.0625 87.679688 478.050781 88.820312 C 477.742188 99.144531 475.207031 105.726562 468.4375 113.511719 C 466.957031 114.769531 466.957031 114.769531 465.445312 116.054688 C 464.507812 116.890625 463.570312 117.730469 462.605469 118.597656 C 458.890625 121.25 455.332031 122.765625 451.089844 124.429688 C 456.75 133.777344 462.996094 142.609375 469.488281 151.398438 C 473.3125 156.605469 476.71875 161.824219 479.804688 167.5 C 474.554688 169.03125 470.675781 169.207031 465.445312 167.5 C 460.71875 163.171875 457.398438 157.667969 453.957031 152.3125 C 453.316406 151.335938 452.675781 150.363281 452.015625 149.359375 C 450.402344 146.777344 448.972656 144.234375 447.554688 141.546875 C 443.027344 133.367188 443.027344 133.367188 435.492188 128.304688 C 428.710938 126.941406 421.914062 127.277344 415.042969 127.570312 C 412.964844 127.59375 410.886719 127.613281 408.808594 127.625 C 403.746094 127.652344 398.722656 127.839844 393.65625 128.019531 C 393.65625 141.046875 393.65625 154.074219 393.65625 167.5 C 389.3125 167.5 384.96875 167.5 380.492188 167.5 C 380.492188 126.4375 380.492188 85.378906 380.492188 43.070312 Z M 380.492188 43.070312 "/>
    <path style=" stroke:none;fill-rule:nonzero;fill:rgb(1.568628%,1.568628%,1.568628%);fill-opacity:1;" d="M 676.898438 42.953125 C 678.875 42.976562 678.875 42.976562 680.894531 42.996094 C 682.878906 43.011719 682.878906 43.011719 684.898438 43.03125 C 685.921875 43.042969 686.945312 43.058594 688 43.070312 C 699.695312 68.476562 711.351562 93.898438 722.902344 119.367188 C 725.296875 124.644531 727.699219 129.914062 730.101562 135.183594 C 731.789062 138.882812 733.476562 142.582031 735.164062 146.28125 C 735.972656 148.054688 736.78125 149.828125 737.59375 151.601562 C 738.710938 154.046875 739.824219 156.492188 740.941406 158.9375 C 741.578125 160.335938 742.214844 161.730469 742.871094 163.171875 C 744.234375 166.304688 744.234375 166.304688 744.234375 167.5 C 739.496094 167.5 734.757812 167.5 729.878906 167.5 C 725.140625 156.839844 720.402344 146.179688 715.519531 135.195312 C 680.574219 134.605469 680.574219 134.605469 644.925781 134 C 643.738281 137.554688 642.554688 141.105469 641.335938 144.769531 C 640.570312 146.6875 639.777344 148.601562 638.933594 150.488281 C 638.515625 151.417969 638.101562 152.351562 637.675781 153.3125 C 637.042969 154.707031 637.042969 154.707031 636.398438 156.132812 C 635.96875 157.101562 635.539062 158.070312 635.09375 159.070312 C 631.929688 166.136719 631.929688 166.136719 630.566406 167.5 C 628.347656 167.585938 626.128906 167.601562 623.910156 167.574219 C 622.09375 167.558594 622.09375 167.558594 620.242188 167.542969 C 619.304688 167.527344 618.367188 167.515625 617.40625 167.5 C 620.09375 158.539062 623.882812 150.242188 627.90625 141.816406 C 629.933594 137.578125 631.9375 133.328125 633.941406 129.078125 C 634.355469 128.199219 634.769531 127.324219 635.199219 126.417969 C 639.570312 117.144531 643.832031 107.820312 648.066406 98.480469 C 648.433594 97.671875 648.800781 96.863281 649.175781 96.03125 C 653.289062 86.96875 657.375 77.894531 661.433594 68.808594 C 661.796875 67.996094 662.160156 67.179688 662.535156 66.339844 C 664.269531 62.464844 666 58.582031 667.722656 54.699219 C 668.328125 53.34375 668.933594 51.984375 669.554688 50.585938 C 670.085938 49.390625 670.617188 48.195312 671.164062 46.960938 C 673 43.09375 673 43.09375 676.898438 42.953125 Z M 676.898438 42.953125 "/>
    <path style=" stroke:none;fill-rule:nonzero;fill:rgb(1.568628%,1.568628%,1.568628%);fill-opacity:1;" d="M 292.554688 42.953125 C 295.941406 42.992188 299.332031 43.03125 302.71875 43.070312 C 309.628906 56.671875 316.175781 70.410156 322.535156 84.273438 C 323.472656 86.308594 324.410156 88.34375 325.347656 90.378906 C 332.230469 105.339844 339.0625 120.320312 345.859375 135.320312 C 346.199219 136.074219 346.542969 136.832031 346.894531 137.609375 C 347.882812 139.785156 348.863281 141.960938 349.847656 144.136719 C 351.171875 147.03125 352.507812 149.914062 353.875 152.792969 C 354.53125 154.1875 355.191406 155.582031 355.871094 157.023438 C 356.464844 158.261719 357.058594 159.503906 357.667969 160.785156 C 358.957031 163.910156 358.957031 163.910156 358.957031 167.5 C 354.613281 167.5 350.269531 167.5 345.792969 167.5 C 344.066406 163.9375 342.347656 160.375 340.632812 156.808594 C 340.152344 155.8125 339.667969 154.820312 339.167969 153.792969 C 338.695312 152.804688 338.21875 151.8125 337.730469 150.792969 C 337.300781 149.894531 336.867188 149 336.421875 148.078125 C 334.488281 143.492188 333.011719 138.722656 331.4375 134 C 308.140625 134 284.84375 134 260.839844 134 C 260.050781 136.367188 259.261719 138.738281 258.449219 141.179688 C 257.53125 143.34375 256.578125 145.5 255.597656 147.636719 C 255.066406 148.800781 254.53125 149.964844 253.984375 151.164062 C 253.433594 152.359375 252.882812 153.554688 252.316406 154.789062 C 251.757812 156.011719 251.195312 157.234375 250.621094 158.492188 C 249.242188 161.496094 247.863281 164.5 246.484375 167.5 C 242.140625 167.5 237.796875 167.5 233.320312 167.5 C 234.167969 163.273438 234.722656 160.652344 236.457031 156.960938 C 237.050781 155.679688 237.050781 155.679688 237.660156 154.371094 C 238.3125 152.996094 238.3125 152.996094 238.976562 151.589844 C 239.429688 150.617188 239.886719 149.644531 240.351562 148.640625 C 241.332031 146.546875 242.3125 144.453125 243.296875 142.359375 C 245.910156 136.808594 248.5 131.246094 251.089844 125.6875 C 251.617188 124.566406 252.140625 123.445312 252.679688 122.289062 C 257.460938 112.039062 262.15625 101.753906 266.824219 91.453125 C 267.550781 89.847656 268.28125 88.242188 269.007812 86.636719 C 270.402344 83.566406 271.792969 80.492188 273.1875 77.421875 C 276.390625 70.355469 279.605469 63.292969 282.828125 56.230469 C 283.375 55.023438 283.925781 53.816406 284.492188 52.570312 C 285.234375 50.941406 285.234375 50.941406 285.996094 49.277344 C 286.644531 47.859375 286.644531 47.859375 287.300781 46.414062 C 288.941406 43.09375 288.941406 43.09375 292.554688 42.953125 Z M 292.554688 42.953125 "/>
    <path style=" stroke:none;fill-rule:nonzero;fill:rgb(98.823529%,98.823529%,98.823529%);fill-opacity:1;" d="M 1877.339844 78.964844 C 1887.785156 80.464844 1898.09375 82.316406 1908.402344 84.558594 C 1909.839844 84.867188 1911.273438 85.179688 1912.753906 85.5 C 1927.699219 88.761719 1942.558594 92.359375 1957.40625 96.035156 C 1961.914062 97.152344 1966.425781 98.261719 1970.941406 99.367188 C 1973.855469 100.085938 1976.773438 100.804688 1979.6875 101.523438 C 1981.675781 102.011719 1981.675781 102.011719 1983.703125 102.507812 C 1991.398438 104.417969 1998.996094 106.523438 2006.5625 108.875 C 2008.027344 109.324219 2009.488281 109.769531 2010.992188 110.234375 C 2019.023438 112.722656 2019.023438 112.722656 2021.898438 113.613281 C 2024.226562 114.335938 2026.554688 115.058594 2028.882812 115.78125 C 2030.371094 116.242188 2031.859375 116.703125 2033.390625 117.179688 C 2034.730469 117.59375 2036.070312 118.011719 2037.453125 118.441406 C 2041.128906 119.601562 2044.789062 120.804688 2048.441406 122.035156 C 2045.535156 129.960938 2035.492188 134.0625 2028.179688 137.472656 C 2023.039062 139.703125 2017.8125 141.652344 2012.546875 143.570312 C 2011.632812 143.9375 2010.71875 144.304688 2009.773438 144.683594 C 1996.371094 149.773438 1980.828125 151.148438 1966.601562 151.757812 C 1963.671875 151.886719 1960.746094 152.113281 1957.832031 152.433594 C 1947.292969 153.246094 1947.292969 153.246094 1942.394531 149.613281 C 1939.609375 146.535156 1937.183594 143.359375 1934.773438 139.980469 C 1933.398438 138.367188 1932.003906 136.773438 1930.585938 135.195312 C 1929.917969 134.429688 1929.25 133.667969 1928.5625 132.878906 C 1922.015625 125.417969 1915.390625 118.125 1908.308594 111.167969 C 1906.144531 108.964844 1904.15625 106.679688 1902.167969 104.3125 C 1897.992188 99.4375 1893.335938 95.203125 1888.527344 90.96875 C 1884.339844 87.238281 1880.832031 83.324219 1877.339844 78.964844 Z M 1877.339844 78.964844 "/>
    <path style=" stroke:none;fill-rule:nonzero;fill:rgb(1.960784%,1.960784%,1.960784%);fill-opacity:1;" d="M 82.558594 43.070312 C 86.113281 43.070312 89.667969 43.070312 93.328125 43.070312 C 96.242188 46.433594 97.921875 48.988281 99.910156 52.867188 C 101.132812 55.070312 102.359375 57.277344 103.582031 59.480469 C 104.234375 60.6875 104.890625 61.890625 105.5625 63.132812 C 107.816406 67.234375 110.160156 71.277344 112.539062 75.304688 C 112.957031 76.015625 113.378906 76.730469 113.8125 77.460938 C 114.675781 78.921875 115.539062 80.378906 116.402344 81.839844 C 118.582031 85.527344 120.742188 89.222656 122.90625 92.917969 C 123.332031 93.648438 123.757812 94.378906 124.199219 95.128906 C 127.125 100.136719 130.027344 105.152344 132.925781 110.175781 C 133.691406 111.496094 134.453125 112.816406 135.242188 114.179688 C 136.679688 116.664062 138.113281 119.15625 139.542969 121.648438 C 140.179688 122.753906 140.820312 123.859375 141.480469 125 C 142.03125 125.960938 142.585938 126.925781 143.15625 127.917969 C 144.699219 130.285156 146.292969 132.097656 148.367188 134 C 148.691406 133.144531 149.011719 132.285156 149.34375 131.402344 C 150.773438 127.992188 152.429688 124.917969 154.289062 121.722656 C 155 120.5 155.710938 119.273438 156.441406 118.011719 C 157.207031 116.699219 157.972656 115.386719 158.761719 114.035156 C 159.566406 112.652344 160.371094 111.265625 161.171875 109.882812 C 162.84375 107 164.519531 104.121094 166.195312 101.242188 C 169.382812 95.753906 172.554688 90.257812 175.71875 84.757812 C 177.222656 82.152344 178.730469 79.550781 180.246094 76.953125 C 183.734375 70.964844 187.128906 64.964844 190.289062 58.796875 C 190.855469 57.726562 191.421875 56.65625 192.003906 55.554688 C 193.039062 53.578125 194.042969 51.585938 195 49.570312 C 196.402344 46.949219 196.402344 46.949219 199.820312 43.070312 C 203.765625 43.070312 207.714844 43.070312 211.785156 43.070312 C 211.785156 84.132812 211.785156 125.195312 211.785156 167.5 C 207.441406 167.5 203.097656 167.5 198.621094 167.5 C 198.226562 135.914062 197.832031 104.328125 197.425781 71.785156 C 185.382812 92.136719 185.382812 92.136719 173.421875 112.539062 C 172.742188 113.703125 172.0625 114.871094 171.359375 116.070312 C 164.421875 127.988281 157.578125 139.957031 150.761719 151.945312 C 147.460938 152.363281 147.460938 152.363281 143.582031 151.945312 C 141.148438 149.179688 141.148438 149.179688 138.980469 145.28125 C 138.578125 144.582031 138.179688 143.882812 137.769531 143.164062 C 136.464844 140.871094 135.203125 138.558594 133.933594 136.242188 C 133.039062 134.648438 132.136719 133.058594 131.234375 131.464844 C 129.414062 128.253906 127.605469 125.035156 125.804688 121.8125 C 122.296875 115.539062 118.625 109.363281 114.941406 103.191406 C 108.507812 92.339844 102.117188 81.460938 95.722656 70.589844 C 95.328125 102.570312 94.933594 134.550781 94.523438 167.5 C 90.578125 167.5 86.628906 167.5 82.558594 167.5 C 82.558594 126.4375 82.558594 85.378906 82.558594 43.070312 Z M 82.558594 43.070312 "/>
    <path style=" stroke:none;fill-rule:nonzero;fill:rgb(1.960784%,1.960784%,1.960784%);fill-opacity:1;" d="M 967.785156 57.335938 C 979.222656 68.300781 986.785156 83.074219 987.53125 98.984375 C 987.742188 110.644531 987.402344 120.871094 982.34375 131.605469 C 981.820312 132.746094 981.300781 133.886719 980.761719 135.0625 C 972.996094 150.617188 960.664062 159.015625 944.792969 165.273438 C 927.859375 170.835938 909.839844 170.660156 893.429688 163.339844 C 876.203125 154.617188 865.792969 142.867188 858.773438 124.890625 C 854.125 109.625 855.339844 90.914062 861.980469 76.511719 C 871.390625 59.046875 884.703125 50.171875 902.648438 43.144531 C 924.585938 36.914062 950.4375 43.214844 967.785156 57.335938 Z M 880.050781 72.625 C 870.070312 84.84375 868.433594 98.03125 869.542969 113.339844 C 871.164062 126.71875 878.714844 138.332031 889.03125 146.707031 C 898.835938 153.519531 909.273438 157.199219 921.246094 157.03125 C 922.09375 157.019531 922.941406 157.011719 923.8125 157 C 937.230469 156.714844 949.898438 152.097656 959.984375 142.972656 C 971.863281 130.148438 974.660156 115.007812 974.371094 98.191406 C 973.792969 85.324219 967.496094 74.71875 958.414062 65.804688 C 947.375 57.164062 936.542969 53.15625 922.589844 53.390625 C 921.539062 53.402344 920.488281 53.414062 919.402344 53.425781 C 902.660156 53.828125 891.09375 60.023438 880.050781 72.625 Z M 880.050781 72.625 "/>
    <path style=" stroke:none;fill-rule:nonzero;fill:rgb(98.431373%,98.431373%,98.431373%);fill-opacity:1;" d="M 393.65625 53.839844 C 400.515625 53.765625 407.375 53.691406 414.445312 53.613281 C 416.585938 53.582031 418.722656 53.550781 420.929688 53.515625 C 433.757812 53.402344 445.453125 53.734375 455.875 62.214844 C 462.605469 69.257812 465.605469 75.1875 465.96875 84.796875 C 465.746094 93.28125 462.945312 99.023438 458.714844 106.183594 C 445.875 118.347656 427.898438 117.597656 411.378906 117.398438 C 405.53125 117.351562 399.679688 117.300781 393.65625 117.25 C 393.65625 96.324219 393.65625 75.398438 393.65625 53.839844 Z M 393.65625 53.839844 "/>
    <path style=" stroke:none;fill-rule:nonzero;fill:rgb(1.176471%,1.176471%,1.176471%);fill-opacity:1;" d="M 509.71875 43.070312 C 514.0625 43.070312 518.402344 43.070312 522.878906 43.070312 C 523.273438 67.15625 523.667969 91.238281 524.074219 116.054688 C 528.640625 111.511719 533.207031 106.972656 537.910156 102.292969 C 539.332031 100.882812 540.757812 99.472656 542.222656 98.015625 C 549.761719 90.539062 549.761719 90.539062 556.871094 82.65625 C 563.355469 75.054688 570.671875 68.1875 577.769531 61.167969 C 580.710938 58.257812 583.648438 55.34375 586.585938 52.429688 C 587.597656 51.429688 587.597656 51.429688 588.628906 50.414062 C 592.078125 47.070312 592.078125 47.070312 594.671875 43.070312 C 599.804688 43.070312 604.9375 43.070312 610.226562 43.070312 C 601.078125 53.859375 591.597656 64.171875 581.542969 74.121094 C 577.160156 78.476562 572.976562 82.917969 568.984375 87.632812 C 565.773438 91.3125 562.273438 94.703125 558.773438 98.105469 C 560.316406 101.441406 561.988281 104.078125 564.425781 106.824219 C 565.0625 107.550781 565.703125 108.277344 566.359375 109.023438 C 567.039062 109.789062 567.722656 110.554688 568.421875 111.34375 C 569.84375 112.964844 571.269531 114.585938 572.6875 116.207031 C 573.382812 117 574.078125 117.792969 574.792969 118.609375 C 577.292969 121.496094 579.707031 124.449219 582.105469 127.417969 C 586.386719 132.703125 590.800781 137.851562 595.269531 142.972656 C 612.820312 163.117188 612.820312 163.117188 615.011719 167.5 C 609.140625 168.609375 602.726562 169.679688 597.484375 166.1875 C 592.773438 161.960938 588.953125 156.941406 585.097656 151.945312 C 583.28125 149.726562 581.460938 147.507812 579.640625 145.292969 C 578.785156 144.230469 577.933594 143.167969 577.054688 142.070312 C 573.546875 137.84375 569.828125 133.832031 566.078125 129.820312 C 561.285156 124.660156 556.9375 119.230469 552.644531 113.640625 C 551.902344 112.859375 551.160156 112.074219 550.398438 111.269531 C 542.972656 111.269531 537.269531 118.6875 532.117188 123.515625 C 522.492188 133.695312 521.875 143.171875 522.148438 156.738281 C 522.3125 160.328125 522.585938 163.917969 522.878906 167.5 C 518.535156 167.5 514.191406 167.5 509.71875 167.5 C 509.71875 126.4375 509.71875 85.378906 509.71875 43.070312 Z M 509.71875 43.070312 "/>
    <path style=" stroke:none;fill-rule:nonzero;fill:rgb(1.960784%,1.960784%,1.960784%);fill-opacity:1;" d="M 745.433594 43.070312 C 778.597656 43.070312 811.765625 43.070312 845.941406 43.070312 C 845.941406 46.625 845.941406 50.179688 845.941406 53.839844 C 831.726562 53.839844 817.511719 53.839844 802.863281 53.839844 C 802.863281 91.347656 802.863281 128.855469 802.863281 167.5 C 798.523438 167.5 794.179688 167.5 789.703125 167.5 C 789.703125 129.992188 789.703125 92.484375 789.703125 53.839844 C 775.09375 53.839844 760.484375 53.839844 745.433594 53.839844 C 745.433594 50.285156 745.433594 46.734375 745.433594 43.070312 Z M 745.433594 43.070312 "/>
    <path style=" stroke:none;fill-rule:nonzero;fill:rgb(96.862745%,96.862745%,96.862745%);fill-opacity:1;" d="M 2285.351562 172.285156 C 2286.082031 179.023438 2286.675781 185.773438 2286.921875 192.550781 C 2286.992188 194.121094 2286.992188 194.121094 2287.058594 195.722656 C 2286.363281 199.660156 2284.828125 200.882812 2281.761719 203.394531 C 2278.765625 204.113281 2278.765625 204.113281 2275.238281 204.277344 C 2273.859375 204.34375 2272.480469 204.40625 2271.058594 204.476562 C 2269.441406 204.519531 2267.824219 204.554688 2266.207031 204.589844 C 2264.839844 204.621094 2264.839844 204.621094 2263.445312 204.652344 C 2257.1875 204.773438 2250.929688 204.8125 2244.667969 204.8125 C 2241.371094 204.8125 2238.074219 204.835938 2234.777344 204.859375 C 2232.648438 204.863281 2230.515625 204.863281 2228.386719 204.863281 C 2227.417969 204.875 2226.449219 204.882812 2225.453125 204.890625 C 2214.203125 204.847656 2205.640625 202.988281 2196.960938 195.464844 C 2195.613281 193.820312 2195.613281 193.820312 2195.613281 191.429688 C 2205.691406 187.523438 2215.902344 184.535156 2226.351562 181.78125 C 2227.535156 181.46875 2227.535156 181.46875 2228.742188 181.148438 C 2240.355469 178.078125 2251.921875 175.238281 2263.816406 173.480469 C 2265.375 173.25 2265.375 173.25 2266.964844 173.015625 C 2273.109375 172.222656 2279.160156 172.1875 2285.351562 172.285156 Z M 2285.351562 172.285156 "/>
    <path style=" stroke:none;fill-rule:nonzero;fill:rgb(98.431373%,98.431373%,98.431373%);fill-opacity:1;" d="M 679.625 57.429688 C 682.484375 60.023438 684.074219 62.386719 685.648438 65.90625 C 686.09375 66.882812 686.535156 67.863281 686.992188 68.871094 C 687.460938 69.925781 687.929688 70.980469 688.410156 72.066406 C 688.902344 73.15625 689.390625 74.246094 689.898438 75.371094 C 691.464844 78.859375 693.023438 82.351562 694.578125 85.84375 C 695.628906 88.179688 696.675781 90.511719 697.726562 92.84375 C 702.480469 103.433594 702.480469 103.433594 704.769531 108.605469 C 705.527344 110.316406 706.292969 112.027344 707.066406 113.730469 C 708.589844 117.128906 709.535156 119.457031 709.535156 123.230469 C 690.1875 123.230469 670.839844 123.230469 650.90625 123.230469 C 654.945312 111.117188 654.945312 111.117188 656.953125 106.703125 C 657.625 105.21875 657.625 105.21875 658.308594 103.707031 C 659.015625 102.164062 659.015625 102.164062 659.734375 100.589844 C 660.230469 99.5 660.722656 98.410156 661.230469 97.289062 C 662.796875 93.847656 664.367188 90.40625 665.9375 86.964844 C 666.996094 84.632812 668.054688 82.304688 669.113281 79.972656 C 671.050781 75.710938 672.984375 71.453125 674.929688 67.199219 C 675.316406 66.351562 675.703125 65.5 676.105469 64.625 C 677.234375 62.203125 678.417969 59.8125 679.625 57.429688 Z M 679.625 57.429688 "/>
    <path style=" stroke:none;fill-rule:nonzero;fill:rgb(98.431373%,98.431373%,98.431373%);fill-opacity:1;" d="M 295.539062 57.429688 C 298.808594 60.53125 300.386719 63.3125 302.199219 67.46875 C 302.777344 68.773438 303.351562 70.082031 303.945312 71.425781 C 304.855469 73.527344 304.855469 73.527344 305.785156 75.675781 C 306.414062 77.105469 307.039062 78.539062 307.6875 80.011719 C 308.984375 82.980469 310.28125 85.945312 311.570312 88.917969 C 313.394531 93.117188 315.242188 97.304688 317.09375 101.496094 C 318.183594 103.980469 319.277344 106.464844 320.367188 108.949219 C 320.882812 110.117188 321.398438 111.28125 321.925781 112.480469 C 322.394531 113.550781 322.859375 114.621094 323.339844 115.722656 C 323.957031 117.125 323.957031 117.125 324.582031 118.554688 C 325.453125 120.839844 325.453125 120.839844 325.453125 123.230469 C 306.105469 123.230469 286.757812 123.230469 266.824219 123.230469 C 267.699219 118.859375 268.394531 116.003906 270.167969 112.109375 C 270.605469 111.136719 271.046875 110.160156 271.5 109.15625 C 272.214844 107.597656 272.214844 107.597656 272.941406 106.011719 C 273.679688 104.382812 273.679688 104.382812 274.433594 102.726562 C 275.472656 100.433594 276.515625 98.144531 277.5625 95.855469 C 279.152344 92.375 280.730469 88.894531 282.3125 85.410156 C 283.324219 83.179688 284.339844 80.949219 285.355469 78.714844 C 285.824219 77.6875 286.292969 76.65625 286.777344 75.59375 C 289.574219 69.472656 292.496094 63.429688 295.539062 57.429688 Z M 295.539062 57.429688 "/>
    <path style=" stroke:none;fill-rule:nonzero;fill:rgb(3.137255%,3.137255%,3.137255%);fill-opacity:1;" d="M 483.394531 187.839844 C 490.574219 187.726562 490.574219 187.726562 497.902344 187.613281 C 499.398438 187.582031 500.894531 187.550781 502.4375 187.515625 C 514.789062 187.421875 514.789062 187.421875 520.484375 191.429688 C 525.328125 196.664062 526.917969 200.757812 526.800781 207.949219 C 525.972656 214.503906 523.121094 218.996094 518.019531 223.058594 C 513.136719 225.65625 509.738281 226.269531 504.28125 226.242188 C 502.546875 226.238281 502.546875 226.238281 500.777344 226.234375 C 499.308594 226.222656 497.84375 226.210938 496.332031 226.199219 C 489.335938 226.164062 489.335938 226.164062 482.199219 226.125 C 482.59375 213.492188 482.988281 200.855469 483.394531 187.839844 Z M 483.394531 187.839844 "/>
    <path style=" stroke:none;fill-rule:nonzero;fill:rgb(2.745098%,2.745098%,2.745098%);fill-opacity:1;" d="M 386.3125 189.980469 C 391.089844 192.6875 393.152344 195.902344 394.851562 201 C 395.527344 207.816406 395.195312 213.117188 391.261719 218.945312 C 383.953125 225.695312 378.550781 226.605469 368.765625 226.417969 C 361.992188 225.898438 357.644531 224.09375 353.121094 218.871094 C 348.601562 212.621094 348.621094 207.394531 349.382812 199.804688 C 352.167969 193.917969 355.75 191.054688 361.347656 187.839844 C 369.980469 184.960938 378.125 186.355469 386.3125 189.980469 Z M 386.3125 189.980469 "/>
    <path style=" stroke:none;fill-rule:nonzero;fill:rgb(5.098039%,5.098039%,5.098039%);fill-opacity:1;" d="M 601.847656 185.445312 C 601.847656 189.394531 601.847656 193.34375 601.847656 197.410156 C 593.164062 197.015625 584.476562 196.621094 575.527344 196.214844 C 575.527344 198.1875 575.527344 200.164062 575.527344 202.195312 C 581.054688 201.800781 586.582031 201.40625 592.277344 201 C 592.277344 204.554688 592.277344 208.105469 592.277344 211.769531 C 583.984375 211.175781 583.984375 211.175781 575.527344 210.570312 C 575.527344 212.546875 575.527344 214.519531 575.527344 216.554688 C 584.210938 216.160156 592.898438 215.765625 601.847656 215.355469 C 601.847656 219.304688 601.847656 223.253906 601.847656 227.320312 C 588.820312 226.925781 575.789062 226.53125 562.363281 226.125 C 563.550781 225.53125 563.550781 225.53125 564.757812 224.929688 C 564.617188 219.859375 564.46875 214.792969 564.3125 209.726562 C 564.261719 208 564.210938 206.277344 564.164062 204.550781 C 564.09375 202.074219 564.015625 199.597656 563.941406 197.121094 C 563.894531 195.628906 563.851562 194.136719 563.804688 192.601562 C 563.796875 189.125 563.796875 189.125 562.363281 186.644531 C 567.796875 186.472656 573.226562 186.300781 578.65625 186.132812 C 580.507812 186.074219 582.355469 186.015625 584.203125 185.957031 C 586.855469 185.875 589.507812 185.792969 592.160156 185.707031 C 592.992188 185.683594 593.824219 185.65625 594.679688 185.628906 C 600.515625 185.445312 600.515625 185.445312 601.847656 185.445312 Z M 601.847656 185.445312 "/>
    <path style=" stroke:none;fill-rule:nonzero;fill:rgb(3.529412%,3.529412%,3.529412%);fill-opacity:1;" d="M 722.699219 186.644531 C 728.621094 186.644531 734.542969 186.644531 740.644531 186.644531 C 741.039062 188.148438 741.4375 189.652344 741.84375 191.203125 C 744.117188 198.910156 747.359375 206.199219 750.585938 213.546875 C 751.207031 214.976562 751.207031 214.976562 751.839844 216.4375 C 752.21875 217.292969 752.597656 218.152344 752.984375 219.035156 C 753.808594 221.339844 753.808594 221.339844 753.808594 224.929688 C 754.992188 225.519531 754.992188 225.519531 756.199219 226.125 C 751.460938 226.125 746.722656 226.125 741.84375 226.125 C 741.449219 223.359375 741.050781 220.597656 740.644531 217.75 C 734.328125 217.75 728.011719 217.75 721.5 217.75 C 721.5 220.515625 721.5 223.277344 721.5 226.125 C 717.15625 226.125 712.816406 226.125 708.339844 226.125 C 708.691406 225.269531 709.039062 224.414062 709.398438 223.53125 C 710.996094 219.613281 712.585938 215.691406 714.171875 211.769531 C 714.722656 210.421875 715.273438 209.074219 715.839844 207.6875 C 718.652344 200.726562 721.132812 193.992188 722.699219 186.644531 Z M 722.699219 186.644531 "/>
    <path style=" stroke:none;fill-rule:nonzero;fill:rgb(3.529412%,3.529412%,3.529412%);fill-opacity:1;" d="M 124.4375 186.644531 C 130.753906 186.644531 137.074219 186.644531 143.582031 186.644531 C 143.976562 189.40625 144.371094 192.171875 144.777344 195.019531 C 145.953125 198.585938 145.953125 198.585938 147.472656 202.03125 C 148 203.289062 148.53125 204.546875 149.078125 205.84375 C 149.632812 207.132812 150.1875 208.421875 150.761719 209.75 C 151.316406 211.0625 151.871094 212.371094 152.445312 213.722656 C 155.0625 219.984375 155.0625 219.984375 157.941406 226.125 C 153.203125 226.125 148.464844 226.125 143.582031 226.125 C 143.1875 223.757812 142.792969 221.386719 142.386719 218.945312 C 136.464844 218.945312 130.539062 218.945312 124.4375 218.945312 C 124.042969 221.316406 123.648438 223.683594 123.242188 226.125 C 118.898438 226.125 114.554688 226.125 110.078125 226.125 C 111.265625 225.53125 111.265625 225.53125 112.472656 224.929688 C 112.921875 222.945312 113.3125 220.949219 113.667969 218.945312 C 114.347656 216.988281 115.074219 215.046875 115.839844 213.117188 C 116.261719 212.035156 116.683594 210.953125 117.117188 209.839844 C 118.007812 207.589844 118.898438 205.339844 119.792969 203.089844 C 120.214844 202.007812 120.636719 200.925781 121.074219 199.808594 C 121.460938 198.832031 121.847656 197.855469 122.246094 196.847656 C 123.535156 193.191406 123.535156 193.191406 124.4375 186.644531 Z M 124.4375 186.644531 "/>
    <path style=" stroke:none;fill-rule:nonzero;fill:rgb(2.352941%,2.352941%,2.352941%);fill-opacity:1;" d="M 196.230469 187.839844 C 200.179688 187.839844 204.125 187.839844 208.195312 187.839844 C 208.167969 189.425781 208.140625 191.011719 208.109375 192.644531 C 208.089844 194.730469 208.066406 196.820312 208.042969 198.90625 C 208.023438 199.949219 208.003906 200.996094 207.984375 202.070312 C 207.972656 203.585938 207.972656 203.585938 207.960938 205.132812 C 207.941406 206.523438 207.941406 206.523438 207.921875 207.941406 C 208.089844 211.0625 208.089844 211.0625 210.585938 215.355469 C 215.324219 215.355469 220.0625 215.355469 224.945312 215.355469 C 225.339844 206.277344 225.734375 197.195312 226.140625 187.839844 C 230.089844 187.839844 234.039062 187.839844 238.109375 187.839844 C 238.003906 192.300781 237.875 196.761719 237.734375 201.222656 C 237.707031 202.488281 237.679688 203.75 237.652344 205.050781 C 237.609375 206.273438 237.566406 207.492188 237.523438 208.753906 C 237.492188 209.875 237.460938 210.996094 237.429688 212.152344 C 236.597656 217.304688 234.191406 220.46875 230.554688 224.105469 C 223.832031 228.257812 214.042969 227 206.609375 225.601562 C 201.894531 223.964844 199.535156 221.089844 197.195312 216.804688 C 195.265625 211.523438 195.742188 206.019531 195.929688 200.476562 C 195.953125 199.257812 195.972656 198.042969 195.996094 196.785156 C 196.050781 193.804688 196.136719 190.820312 196.230469 187.839844 Z M 196.230469 187.839844 "/>
    <path style=" stroke:none;fill-rule:nonzero;fill:rgb(4.313726%,4.313726%,4.313726%);fill-opacity:1;" d="M 2060.855469 153.292969 C 2061.796875 153.363281 2062.734375 153.4375 2063.703125 153.511719 C 2065.8125 153.675781 2067.925781 153.851562 2070.03125 154.035156 C 2076.863281 154.621094 2083.707031 155.066406 2090.542969 155.535156 C 2092.742188 155.691406 2092.742188 155.691406 2094.988281 155.851562 C 2108.976562 156.828125 2122.972656 157.445312 2136.984375 157.929688 C 2136.984375 158.71875 2136.984375 159.507812 2136.984375 160.320312 C 2125.621094 160.960938 2114.261719 161.585938 2102.898438 162.195312 C 2097.613281 162.476562 2092.332031 162.765625 2087.050781 163.0625 C 2057.003906 164.757812 2027.085938 165.433594 1996.992188 165.105469 C 2000.328125 161.769531 2002.863281 162.089844 2007.53125 161.601562 C 2009.207031 161.414062 2010.886719 161.226562 2012.5625 161.035156 C 2015.191406 160.753906 2017.824219 160.472656 2020.453125 160.203125 C 2030.148438 159.1875 2038.867188 157.78125 2047.984375 154.113281 C 2052.410156 152.605469 2056.261719 152.8125 2060.855469 153.292969 Z M 2060.855469 153.292969 "/>
    <path style=" stroke:none;fill-rule:nonzero;fill:rgb(4.313726%,4.313726%,4.313726%);fill-opacity:1;" d="M 676.035156 185.445312 C 676.035156 189.789062 676.035156 194.132812 676.035156 198.605469 C 675.441406 197.421875 675.441406 197.421875 674.835938 196.214844 C 670.097656 196.214844 665.359375 196.214844 660.480469 196.214844 C 660.480469 205.691406 660.480469 215.164062 660.480469 224.929688 C 661.269531 225.324219 662.058594 225.71875 662.871094 226.125 C 658.132812 226.125 653.394531 226.125 648.515625 226.125 C 648.910156 216.253906 649.304688 206.382812 649.710938 196.214844 C 642.601562 196.804688 642.601562 196.804688 635.351562 197.410156 C 635.351562 193.855469 635.351562 190.304688 635.351562 186.644531 C 640.953125 186.472656 646.554688 186.300781 652.15625 186.132812 C 654.0625 186.074219 655.96875 186.015625 657.878906 185.957031 C 660.613281 185.875 663.347656 185.792969 666.082031 185.707031 C 666.941406 185.683594 667.796875 185.65625 668.679688 185.628906 C 674.699219 185.445312 674.699219 185.445312 676.035156 185.445312 Z M 676.035156 185.445312 "/>
    <path style=" stroke:none;fill-rule:nonzero;fill:rgb(4.313726%,4.313726%,4.313726%);fill-opacity:1;" d="M 315.882812 185.445312 C 315.882812 189.789062 315.882812 194.132812 315.882812 198.605469 C 315.289062 197.421875 315.289062 197.421875 314.683594 196.214844 C 309.945312 196.214844 305.207031 196.214844 300.328125 196.214844 C 300.328125 205.691406 300.328125 215.164062 300.328125 224.929688 C 301.117188 225.324219 301.90625 225.71875 302.71875 226.125 C 297.980469 226.125 293.242188 226.125 288.359375 226.125 C 288.757812 216.253906 289.152344 206.382812 289.558594 196.214844 C 282.449219 196.804688 282.449219 196.804688 275.199219 197.410156 C 275.199219 193.855469 275.199219 190.304688 275.199219 186.644531 C 280.800781 186.472656 286.402344 186.300781 292.003906 186.132812 C 293.910156 186.074219 295.816406 186.015625 297.722656 185.957031 C 300.460938 185.875 303.195312 185.792969 305.929688 185.707031 C 306.789062 185.683594 307.644531 185.65625 308.527344 185.628906 C 314.546875 185.445312 314.546875 185.445312 315.882812 185.445312 Z M 315.882812 185.445312 "/>
    <path style=" stroke:none;fill-rule:nonzero;fill:rgb(3.529412%,3.529412%,3.529412%);fill-opacity:1;" d="M 849.527344 187.839844 C 853.476562 187.839844 857.425781 187.839844 861.496094 187.839844 C 861.496094 197.316406 861.496094 206.789062 861.496094 216.554688 C 870.574219 216.160156 879.65625 215.765625 889.015625 215.355469 C 889.015625 219.304688 889.015625 223.253906 889.015625 227.320312 C 875.589844 226.925781 862.164062 226.53125 848.332031 226.125 C 849.121094 225.730469 849.910156 225.335938 850.726562 224.929688 C 850.332031 212.6875 849.9375 200.449219 849.527344 187.839844 Z M 849.527344 187.839844 "/>
    <path style=" stroke:none;fill-rule:nonzero;fill:rgb(91.37255%,91.37255%,91.37255%);fill-opacity:1;" d="M 1666.753906 76.570312 C 1667.148438 76.570312 1667.542969 76.570312 1667.949219 76.570312 C 1668.082031 84.632812 1667.589844 92.484375 1666.753906 100.5 C 1666.359375 100.5 1665.960938 100.5 1665.554688 100.5 C 1665.382812 99.613281 1665.210938 98.722656 1665.03125 97.808594 C 1664.464844 94.671875 1664.464844 94.671875 1663.613281 92.347656 C 1663.003906 88.800781 1663.859375 86.285156 1664.882812 82.851562 C 1665.226562 81.675781 1665.570312 80.496094 1665.925781 79.28125 C 1666.199219 78.386719 1666.472656 77.492188 1666.753906 76.570312 Z M 1666.753906 76.570312 "/>
    <path style=" stroke:none;fill-rule:nonzero;fill:rgb(7.058824%,7.058824%,7.058824%);fill-opacity:1;" d="M 794.488281 187.839844 C 798.4375 187.839844 802.386719 187.839844 806.453125 187.839844 C 806.847656 200.472656 807.246094 213.109375 807.652344 226.125 C 802.914062 226.125 798.175781 226.125 793.292969 226.125 C 793.6875 213.492188 794.082031 200.855469 794.488281 187.839844 Z M 794.488281 187.839844 "/>
    <path style=" stroke:none;fill-rule:nonzero;fill:rgb(94.901961%,94.901961%,94.901961%);fill-opacity:1;" d="M 1334.121094 147.160156 C 1335.339844 150.816406 1335.320312 153.605469 1335.125 157.417969 C 1335.40625 161.65625 1336.679688 165.773438 1337.710938 169.894531 C 1324.679688 169.894531 1311.648438 169.894531 1298.222656 169.894531 C 1301.609375 166.507812 1304.539062 164.5 1308.625 162.070312 C 1310.613281 160.878906 1310.613281 160.878906 1312.644531 159.667969 C 1314.046875 158.839844 1315.445312 158.007812 1316.84375 157.179688 C 1318.25 156.34375 1319.65625 155.503906 1321.058594 154.667969 C 1331.253906 148.59375 1331.253906 148.59375 1334.121094 147.160156 Z M 1334.121094 147.160156 "/>
    <path style=" stroke:none;fill-rule:nonzero;fill:rgb(96.470588%,96.470588%,96.470588%);fill-opacity:1;" d="M 374.238281 195.632812 C 378.980469 196.667969 380.9375 198.484375 384.082031 202.195312 C 384.902344 206.5625 384.417969 208.671875 382.511719 212.664062 C 380.492188 215.355469 380.492188 215.355469 376.902344 217.75 C 368.59375 218.554688 368.59375 218.554688 363.816406 215.507812 C 360.65625 212.253906 360.21875 211.167969 359.703125 206.609375 C 360.152344 202.195312 360.152344 202.195312 362.472656 198.683594 C 366.738281 195.808594 369.191406 195.332031 374.238281 195.632812 Z M 374.238281 195.632812 "/>
    <path style=" stroke:none;fill-rule:nonzero;fill:rgb(94.509804%,94.509804%,94.509804%);fill-opacity:1;" d="M 494.164062 196.214844 C 508.890625 195.625 508.890625 195.625 512.574219 198.25 C 515.421875 202.304688 515.261719 205.328125 515.011719 210.152344 C 514.503906 212.964844 514.503906 212.964844 512.410156 216.105469 C 506.300781 218.6875 500.757812 218.039062 494.164062 217.75 C 494.164062 210.644531 494.164062 203.535156 494.164062 196.214844 Z M 494.164062 196.214844 "/>
    <path style=" stroke:none;fill-rule:nonzero;fill:rgb(94.117647%,94.117647%,94.117647%);fill-opacity:1;" d="M 729.878906 195.019531 C 730.667969 195.019531 731.457031 195.019531 732.269531 195.019531 C 734.246094 200.546875 736.21875 206.074219 738.253906 211.769531 C 733.910156 211.769531 729.566406 211.769531 725.089844 211.769531 C 727.484375 200.316406 727.484375 200.316406 729.878906 195.019531 Z M 729.878906 195.019531 "/>
    <path style=" stroke:none;fill-rule:nonzero;fill:rgb(94.117647%,94.117647%,94.117647%);fill-opacity:1;" d="M 132.8125 195.019531 C 135.511719 197.71875 136.363281 199.859375 137.75 203.394531 C 138.171875 204.453125 138.59375 205.515625 139.03125 206.609375 C 139.992188 209.375 139.992188 209.375 139.992188 211.769531 C 135.648438 211.769531 131.304688 211.769531 126.832031 211.769531 C 127.746094 207.195312 128.597656 204.128906 130.496094 200.027344 C 131.144531 198.609375 131.144531 198.609375 131.808594 197.164062 C 132.140625 196.457031 132.472656 195.746094 132.8125 195.019531 Z M 132.8125 195.019531 "/>
    <path style=" stroke:none;fill-rule:nonzero;fill:rgb(32.549021%,32.549021%,32.549021%);fill-opacity:1;" d="M 2018.527344 161.519531 C 2018.527344 161.914062 2018.527344 162.308594 2018.527344 162.714844 C 2026.820312 163.109375 2035.113281 163.503906 2043.65625 163.910156 C 2043.65625 164.304688 2043.65625 164.699219 2043.65625 165.105469 C 2028.257812 165.105469 2012.859375 165.105469 1996.992188 165.105469 C 2002.03125 160.066406 2011.726562 161.375 2018.527344 161.519531 Z M 2018.527344 161.519531 "/>
    <path style=" stroke:none;fill-rule:nonzero;fill:rgb(85.490197%,26.274511%,29.803923%);fill-opacity:1;" d="M 1122.335938 218.945312 C 1121.152344 219.734375 1119.964844 220.527344 1118.746094 221.339844 C 1121.707031 221.929688 1121.707031 221.929688 1124.730469 222.535156 C 1124.730469 222.929688 1124.730469 223.324219 1124.730469 223.730469 C 1114.859375 223.335938 1104.984375 222.941406 1094.816406 222.535156 C 1094.816406 222.140625 1094.816406 221.746094 1094.816406 221.339844 C 1113.65625 218.59375 1113.65625 218.59375 1122.335938 218.945312 Z M 1122.335938 218.945312 "/>
    <path style=" stroke:none;fill-rule:nonzero;fill:rgb(70.588237%,70.588237%,70.588237%);fill-opacity:1;" d="M 1666.753906 76.570312 C 1667.148438 76.570312 1667.542969 76.570312 1667.949219 76.570312 C 1668.082031 84.632812 1667.589844 92.484375 1666.753906 100.5 C 1666.359375 100.5 1665.960938 100.5 1665.554688 100.5 C 1665.382812 99.613281 1665.210938 98.722656 1665.03125 97.808594 C 1664.464844 94.671875 1664.464844 94.671875 1663.613281 92.347656 C 1663.003906 88.800781 1663.859375 86.285156 1664.882812 82.851562 C 1665.226562 81.675781 1665.570312 80.496094 1665.925781 79.28125 C 1666.199219 78.386719 1666.472656 77.492188 1666.753906 76.570312 Z M 1666.753906 76.570312 "/>
  </g>
</svg>
